<svg viewBox="0 0 25 28" xmlns="http://www.w3.org/2000/svg">
<path fill-rule="evenodd" clip-rule="evenodd" d="M8.03745 10.7161H19.398C19.5207 10.7161 19.6385 10.6615 19.7253 10.5642C19.8121 10.467 19.8609 10.3351 19.8609 10.1976V4.82218C19.8609 4.68466 19.8121 4.55277 19.7253 4.45553C19.6385 4.35829 19.5207 4.30367 19.398 4.30367H8.03745C7.91467 4.30367 7.79691 4.35829 7.71009 4.45553C7.62327 4.55277 7.57449 4.68466 7.57449 4.82218V10.1992C7.57486 10.3364 7.6238 10.4679 7.71058 10.5648C7.79736 10.6617 7.91491 10.7161 8.03745 10.7161ZM8.50041 5.33913H18.935V9.67908H8.50041V5.33913Z" />
<path d="M7.56429 13.9806H19.8734V15.0177H7.56429V13.9806Z" />
<path d="M19.8729 17.2073H13.2453V18.2443H19.8729V17.2073Z" />
<path fill-rule="evenodd" clip-rule="evenodd" d="M24.9376 4.14352C24.8992 4.07236 24.8451 4.01351 24.7805 3.97266C24.7158 3.93181 24.6429 3.91034 24.5686 3.91035H21.1377V0.482759C21.1377 0.354723 21.0923 0.231932 21.0114 0.141397C20.9306 0.0508623 20.8209 0 20.7066 0H2.63491C2.28759 0.00100136 1.94386 0.0787878 1.62344 0.228899C1.30302 0.37901 1.01221 0.598493 0.767694 0.874759C0.272611 1.43707 -0.00341375 2.19615 3.18753e-05 2.98586V25.0137H0.00477354C0.0142025 25.7098 0.248306 26.3786 0.663816 26.8964C0.935148 27.2426 1.26923 27.5201 1.64381 27.7104C2.0184 27.9007 2.42489 27.9994 2.8362 28H20.7045C20.8188 28 20.9284 27.9491 21.0093 27.8586C21.0901 27.7681 21.1355 27.6453 21.1355 27.5172V22.9938H24.5686C24.643 22.9939 24.716 22.9724 24.7807 22.9315C24.8455 22.8906 24.8997 22.8317 24.938 22.7604C24.9764 22.6891 24.9977 22.608 24.9998 22.5248C25.0019 22.4416 24.9848 22.3592 24.9501 22.2856L24.0906 20.4612L24.9501 18.6345C24.9843 18.561 25.001 18.4788 24.9986 18.396C24.9963 18.3131 24.9749 18.2324 24.9366 18.1615C24.8982 18.0905 24.8443 18.0319 24.7798 17.9911C24.7154 17.9503 24.6427 17.9288 24.5686 17.9287H21.1377V15.9846H24.5686C24.643 15.9847 24.716 15.9632 24.7807 15.9223C24.8455 15.8814 24.8997 15.8225 24.938 15.7512C24.9764 15.68 24.9977 15.5988 24.9998 15.5156C25.0019 15.4324 24.9848 15.35 24.9501 15.2764L24.0906 13.4516L24.9501 11.6272C24.9847 11.5537 25.0018 11.4713 24.9996 11.3882C24.9974 11.3051 24.9761 11.224 24.9377 11.1528C24.8994 11.0816 24.8452 11.0227 24.7806 10.9818C24.7159 10.941 24.6429 10.9195 24.5686 10.9195H21.1377V8.97593H24.5686C24.643 8.97599 24.716 8.95454 24.7807 8.91364C24.8455 8.87275 24.8997 8.81381 24.938 8.74254C24.9764 8.67128 24.9977 8.59011 24.9998 8.50691C25.0019 8.42372 24.9848 8.34132 24.9501 8.26772L24.0906 6.44338L24.9501 4.61855C24.9848 4.54489 25.0019 4.46243 24.9997 4.37919C24.9975 4.29595 24.9761 4.21477 24.9376 4.14352ZM20.2756 0.965517V22.0283H4.38833V0.965517H20.2756ZM1.38148 1.55255C1.54562 1.36712 1.74084 1.21981 1.95594 1.11907C2.17103 1.01833 2.40177 0.96615 2.63491 0.965517H3.52585V22.0307H2.63362C1.97648 22.0298 1.34346 22.3079 0.862089 22.8089V2.98586C0.8619 2.45055 1.04825 1.9363 1.38148 1.55255ZM2.8362 27.0345C2.54765 27.032 2.26277 26.9618 2 26.8282C1.73723 26.6947 1.50243 26.5008 1.31079 26.2592C1.14575 26.056 1.0218 25.8152 0.947411 25.5535C0.873024 25.2917 0.849948 25.015 0.879761 24.7423C0.929225 24.3044 1.10652 23.8971 1.38406 23.5837C1.54697 23.3975 1.74146 23.2496 1.95612 23.1487C2.17077 23.0478 2.40126 22.9959 2.63405 22.9962H20.2735V25.032H10.1292V25.9975H20.2735V27.0345H2.8362ZM23.854 18.8942L23.2217 20.2358C23.1889 20.3053 23.1718 20.3827 23.1718 20.4612C23.1718 20.5398 23.1889 20.6172 23.2217 20.6867L23.854 22.0283H21.1385V18.8942H23.854ZM23.854 11.885L23.2217 13.2276C23.1889 13.2971 23.1718 13.3745 23.1718 13.453C23.1718 13.5316 23.1889 13.609 23.2217 13.6785L23.854 15.0206H21.1385V11.885H23.854ZM23.2217 6.66834L23.854 8.00993H21.1385V4.87586H23.854L23.2217 6.21793C23.189 6.28735 23.1719 6.36465 23.1719 6.44314C23.1719 6.52162 23.189 6.59892 23.2217 6.66834Z" />
</svg>
