<svg viewBox="0 0 22 24" >
<path stroke-width="2" stroke-linecap="round" stroke-linejoin="round" d="M1 5.4H21M18.7778 5.4V20.8C18.7778 21.3835 18.5437 21.9431 18.1269 22.3556C17.7102 22.7682 17.1449 23 16.5556 23H5.44444C4.85507 23 4.28984 22.7682 3.8731 22.3556C3.45635 21.9431 3.22222 21.3835 3.22222 20.8V5.4M6.55556 5.4V3.2C6.55556 2.61652 6.78968 2.05695 7.20643 1.64437C7.62318 1.23179 8.18841 1 8.77778 1L13.2222 1C13.8116 1 14.3768 1.23179 14.7936 1.64437C15.2103 2.05695 15.4444 2.61652 15.4444 3.2V5.4" />
</svg>
