<svg viewBox="0 0 28 28" >
<path fill-rule="evenodd" clip-rule="evenodd" d="M10.9464 10.5C10.9464 12.1237 9.62697 13.44 7.99932 13.44C6.37167 13.44 5.0522 12.1237 5.0522 10.5C5.0522 8.87628 6.37167 7.56 7.99932 7.56C9.62697 7.56 10.9464 8.87628 10.9464 10.5ZM10.1044 10.5C10.1044 11.6598 9.16192 12.6 7.99932 12.6C6.83671 12.6 5.89423 11.6598 5.89423 10.5C5.89423 9.3402 6.83671 8.4 7.99932 8.4C9.16192 8.4 10.1044 9.3402 10.1044 10.5Z" />
<path fill-rule="evenodd" clip-rule="evenodd" d="M20.0685 13.44C21.6961 13.44 23.0156 12.1237 23.0156 10.5C23.0156 8.87628 21.6961 7.56 20.0685 7.56C18.4408 7.56 17.1213 8.87628 17.1213 10.5C17.1213 12.1237 18.4408 13.44 20.0685 13.44ZM20.0685 12.6C21.2311 12.6 22.1735 11.6598 22.1735 10.5C22.1735 9.3402 21.2311 8.4 20.0685 8.4C18.9059 8.4 17.9634 9.3402 17.9634 10.5C17.9634 11.6598 18.9059 12.6 20.0685 12.6Z" />
<path d="M14.17 20.44C12.1378 20.44 10.4793 19.1987 10.3851 17.64L10.6615 17.36L10.9422 17.5C11.0419 18.4399 12.4205 19.6 14.17 19.6C15.9195 19.6 17.2981 18.4399 17.3978 17.5L17.6785 17.36L17.9549 17.64C17.8608 19.1987 16.2022 20.44 14.17 20.44Z" />
<path fill-rule="evenodd" clip-rule="evenodd" d="M27.9997 7.0673L27.9315 14.1373L27.9983 20.9314C28.0366 24.824 24.8839 28 20.9817 28H7.01695C3.14159 28 0 24.866 0 21V7C0 3.134 3.14159 0 7.01695 0H20.983C24.8848 0 28.0372 3.17518 27.9997 7.0673ZM26.5281 14.1374L26.595 20.9451C26.6256 24.0592 24.1035 26.6 20.9817 26.6H7.01695C3.91666 26.6 1.40339 24.0928 1.40339 21V7C1.40339 3.9072 3.91666 1.4 7.01695 1.4H20.983C24.1044 1.4 26.6264 3.94014 26.5963 7.05384L26.5281 14.1374Z" />
</svg>
