<svg viewBox="0 0 18 12" xmlns="http://www.w3.org/2000/svg">
<path d="M11.5827 2.45047e-05C11.5587 -0.000119256 11.5346 0.000369531 11.5106 0.00149086L11.4873 0.00278471L11.4597 0.00482611C11.2164 0.026879 10.9848 0.113624 10.7924 0.254855C10.6002 0.396057 10.4549 0.585821 10.3741 0.801721C10.2932 1.01765 10.2802 1.25071 10.3363 1.47337C10.3926 1.69603 10.5156 1.89902 10.691 2.05833L13.634 4.80951H1.34985C1.30553 4.80736 1.26096 4.80736 1.21664 4.80951C-0.491171 4.89341 -0.359187 7.29218 1.34985 7.20946H13.6262L10.6924 9.95106C10.573 10.0621 10.4783 10.1941 10.4135 10.3394C10.3487 10.4847 10.3152 10.6406 10.3147 10.798C10.3143 10.9555 10.3471 11.1115 10.4111 11.2571C10.4751 11.4027 10.5691 11.5351 10.6878 11.6467C10.8066 11.7583 10.9476 11.847 11.1029 11.9076C11.2582 11.9682 11.4247 11.9996 11.5931 12C11.7614 12.0004 11.928 11.9697 12.0837 11.9099C12.2394 11.85 12.3808 11.762 12.5001 11.6509L17.6275 6.85342C17.8661 6.62881 18 6.32498 18 6.00828C18 5.6916 17.8661 5.38775 17.6275 5.16314L12.5001 0.368052C12.3814 0.252555 12.2392 0.160462 12.082 0.0972643C11.9246 0.0340383 11.7552 0.000973326 11.5841 2.45047e-05H11.5827Z" />
</svg>
