<svg viewBox="0 0 23 28" xmlns="http://www.w3.org/2000/svg">
<path d="M1.12907 1.12599C1.8458 0.410548 2.81588 0.0060025 3.82913 0H8.91681C9.93004 0.00567563 10.9002 0.410156 11.6168 1.1257C12.3334 1.84124 12.7386 2.81015 12.7447 3.82223V8.9143C12.7447 10.6117 10.197 10.6117 10.197 8.9143V3.82223C10.2007 3.65347 10.1701 3.48572 10.1071 3.32908C10.0441 3.17245 9.95004 3.03016 9.83054 2.9108C9.71105 2.79145 9.5686 2.69748 9.41179 2.63457C9.25497 2.57167 9.08703 2.54111 8.91808 2.54476H3.8304C3.66145 2.54111 3.49351 2.57167 3.3367 2.63457C3.17988 2.69748 3.03744 2.79145 2.91794 2.9108C2.79845 3.03016 2.70438 3.17245 2.6414 3.32908C2.57842 3.48572 2.54783 3.65347 2.55148 3.82223V24.1778C2.54784 24.3464 2.57839 24.5141 2.64129 24.6706C2.70419 24.8272 2.79814 24.9694 2.9175 25.0887C3.03686 25.2081 3.17915 25.3021 3.33582 25.365C3.49248 25.428 3.66029 25.4587 3.82913 25.4552H8.91681C9.08576 25.4589 9.2537 25.4283 9.41051 25.3654C9.56733 25.3025 9.70977 25.2086 9.82927 25.0892C9.94876 24.9698 10.0428 24.8276 10.1058 24.6709C10.1688 24.5143 10.1994 24.3465 10.1957 24.1778V19.0857C10.1957 17.3883 12.7434 17.3883 12.7434 19.0857V24.1778C12.7374 25.1896 12.3323 26.1583 11.616 26.8739C10.8996 27.5894 9.92982 27.994 8.91681 28H3.82913C2.81588 27.994 1.8458 27.5895 1.12907 26.874C0.412336 26.1586 0.00668371 25.1899 0 24.1778V3.82223C0.00668371 2.81013 0.412336 1.84142 1.12907 1.12599Z" />
<path d="M16.4974 7.62665C16.538 7.62299 16.5788 7.6213 16.6197 7.62156H16.6209C16.7912 7.62257 16.9595 7.65766 17.1159 7.72475C17.2724 7.79184 17.4137 7.88958 17.5317 8.01218L22.6296 13.1017C22.8668 13.3401 23 13.6626 23 13.9987C23 14.3349 22.8668 14.6574 22.6296 14.8958L17.5317 19.9878C17.4131 20.1057 17.2724 20.1991 17.1177 20.2627C16.9629 20.3262 16.7972 20.3588 16.6299 20.3583C16.4626 20.3579 16.297 20.3246 16.1425 20.2603C15.9881 20.1959 15.8479 20.1018 15.7299 19.9834C15.6119 19.8649 15.5184 19.7244 15.4547 19.5698C15.3911 19.4152 15.3585 19.2497 15.3589 19.0826C15.3594 18.9154 15.3927 18.75 15.4571 18.5958C15.5215 18.4415 15.6157 18.3015 15.7343 18.1836L18.6514 15.2737H6.44558C4.74629 15.3614 4.61508 12.8154 6.3131 12.7263C6.35723 12.7241 6.40145 12.7241 6.44558 12.7263H18.6591L15.7331 9.80623C15.5586 9.63713 15.4362 9.42169 15.3804 9.18536C15.3245 8.94902 15.3376 8.70166 15.4179 8.47249C15.4983 8.24331 15.6426 8.04189 15.8339 7.89201C16.0252 7.74213 16.2554 7.65005 16.4974 7.62665Z" />
</svg>
