<svg viewBox="0 0 13 28" xmlns="http://www.w3.org/2000/svg">
<path fill-rule="evenodd" clip-rule="evenodd" d="M1.15169 1.12599C1.88278 0.410548 2.8723 0.0060025 3.90586 0H9.09548C10.129 0.00567563 11.1186 0.410156 11.8496 1.1257C12.5805 1.84124 12.9939 2.81015 13 3.82223V8.9143C13 10.6117 10.4013 10.6117 10.4013 8.9143V3.82223C10.405 3.65347 10.3739 3.48572 10.3096 3.32908C10.2454 3.17245 10.1494 3.03016 10.0275 2.9108C9.90563 2.79145 9.76034 2.69748 9.60038 2.63457C9.44042 2.57167 9.26911 2.54111 9.09678 2.54476H3.90716C3.73482 2.54111 3.56351 2.57167 3.40356 2.63457C3.2436 2.69748 3.0983 2.79145 2.97641 2.9108C2.85452 3.03016 2.75857 3.17245 2.69432 3.32908C2.63008 3.48572 2.59888 3.65347 2.60261 3.82223V24.1778C2.59889 24.3464 2.63005 24.5141 2.69421 24.6706C2.75837 24.8272 2.85421 24.9694 2.97596 25.0887C3.09771 25.2081 3.24285 25.3021 3.40266 25.365C3.56246 25.428 3.73363 25.4587 3.90586 25.4552H9.09548C9.26781 25.4589 9.43912 25.4283 9.59908 25.3654C9.75904 25.3025 9.90433 25.2086 10.0262 25.0892C10.1481 24.9698 10.2441 24.8276 10.3083 24.6709C10.3726 24.5143 10.4038 24.3465 10.4 24.1778V19.0857C10.4 17.3883 12.9987 17.3883 12.9987 19.0857V24.1778C12.9926 25.1896 12.5794 26.1583 11.8487 26.8739C11.118 27.5894 10.1288 27.994 9.09548 28H3.90586C2.8723 27.994 1.88278 27.5895 1.15169 26.874C0.420598 26.1586 0.00681764 25.1899 0 24.1778V3.82223C0.00681764 2.81013 0.420598 1.84142 1.15169 1.12599Z" />
</svg>
