<svg viewBox="0 0 26 28" >
<path d="M17.8363 5.02746C18.1369 4.7158 18.5799 5.17509 18.2793 5.48675L6.46098 17.74C6.1762 18.0352 5.71739 17.5759 6.01799 17.2643L17.8363 5.02746Z" />
<path d="M19.719 6.97944C20.0196 6.66778 19.5766 6.20849 19.276 6.52015L7.45771 18.7734C7.15711 19.0686 7.61592 19.5279 7.9007 19.2327L19.719 6.97944Z" />
<path d="M21.1588 8.47213C21.4594 8.16047 21.0164 7.70118 20.7158 8.01284L8.89743 20.2661C8.59683 20.5613 9.05564 21.0206 9.34042 20.7253L21.1588 8.47213Z" />
<path fill-rule="evenodd" clip-rule="evenodd" d="M1.00271 26.7781L8.53354 23.8256L24.8609 6.91383C25.6203 6.12647 26 5.09307 26 4.04326C26 0.418149 21.76 -1.337 19.3393 1.1891L3.02781 18.1008C2.93507 18.197 2.07582 20.6829 1.28814 22.9618C0.732073 24.5706 0.211671 26.0762 0.0218062 26.5649C-0.0256571 26.6961 0.00598478 26.8438 0.100911 26.9422C0.100911 26.9422 0.107422 26.947 0.118173 26.956C0.335645 27.1386 2.5932 29.0342 6.60337 27.221C7.03888 27.0247 7.44613 26.8348 7.83025 26.6556L7.83121 26.6552C10.3351 25.4873 11.8565 24.7778 13.8178 25.7447C14.6027 26.1309 15.1117 26.5966 15.5221 26.9721C16.2448 27.6334 16.6616 28.0148 17.7414 27.1882C18.0736 26.9258 17.6939 26.4009 17.3617 26.6633C16.691 27.1849 16.4262 26.9387 15.8793 26.4304C15.4975 26.0755 14.978 25.5927 14.0867 25.1542C11.9432 24.0921 10.7261 24.6415 7.44781 26.1215L7.41025 26.1384L6.35023 26.6305C3.59737 27.8772 1.79377 27.2374 1.00271 26.7781ZM24.2597 6.60217L19.6399 1.79602L19.7823 1.64839C21.8232 -0.451222 25.3672 1.00867 25.3672 4.04326C25.3672 5.09307 24.9875 5.84762 24.2597 6.60217ZM19.1969 2.27171L23.8167 7.06146L23.4053 7.48794L18.7856 2.6982L19.1969 2.27171ZM18.3268 3.15749L22.9624 7.94723L8.53354 22.907C8.47026 22.5789 8.34369 22.2837 8.13801 22.0704C7.7751 21.6941 7.18093 21.6066 6.64162 21.5271C6.19349 21.461 5.78323 21.4005 5.575 21.1846C5.33902 20.934 5.29358 20.5184 5.24444 20.0689C5.1585 19.2828 5.06124 18.393 3.91379 18.1008L18.3268 3.15749ZM3.56573 25.0886L1.84123 23.3171L3.45498 18.6913C3.70811 18.7241 4.08782 18.8062 4.26185 18.9702C4.48706 19.2037 4.54548 19.6378 4.60866 20.1073C4.68307 20.6603 4.76409 21.2625 5.13201 21.6439C5.48706 22.021 6.07912 22.1082 6.62019 22.1878C7.06762 22.2537 7.48019 22.3144 7.69502 22.5297C7.85324 22.6937 7.93234 23.0218 7.9798 23.3827L3.56573 25.0886ZM1.60391 23.9896L2.90124 25.3347L0.844502 26.1384L1.60391 23.9896Z" />
</svg>
