<svg viewBox="0 0 7 12">
<path d="M2.58904 6.52323L2.59395 6.51808L2.59871 6.51278C2.67651 6.42631 2.76154 6.38649 2.8912 6.38649C3.36471 6.38649 3.80745 6.31367 4.21258 6.15901L4.21264 6.15919L4.22534 6.15394C4.65526 5.97614 5.0026 5.69061 5.25433 5.30317C5.53116 4.89352 5.64641 4.38724 5.64641 3.82703C5.64641 3.37895 5.53913 2.96298 5.31178 2.59544C5.09975 2.23611 4.80213 1.95402 4.43055 1.75155C4.05952 1.54367 3.64484 1.44595 3.20013 1.44595C2.84754 1.44595 2.50863 1.51241 2.18788 1.6471L2.18786 1.64705L2.18108 1.65002C1.88442 1.77978 1.61334 1.95476 1.36891 2.17288L1.36888 2.17284L1.36357 2.17772C1.25972 2.27312 1.12724 2.35146 0.95605 2.40735C0.921584 2.41613 0.851919 2.42217 0.712221 2.31417C0.556797 2.19136 0.50944 2.08041 0.501241 1.97282C0.493131 1.86639 0.52277 1.75191 0.658212 1.60972L0.658246 1.60975L0.662893 1.60474C0.987404 1.2546 1.36346 0.98699 1.79407 0.798631L1.79408 0.798656L1.79884 0.796514C2.23738 0.599204 2.70277 0.5 3.20013 0.5C3.82547 0.5 4.37256 0.651013 4.85488 0.945618L4.85482 0.94572L4.86428 0.951218C5.3673 1.24355 5.76395 1.63663 6.06021 2.13614C6.35029 2.62524 6.5 3.18436 6.5 3.82703C6.5 4.31959 6.42972 4.74012 6.29955 5.09628C6.16755 5.44658 5.98135 5.74447 5.74206 5.99568C5.50825 6.24114 5.22941 6.44359 4.90116 6.60232C4.57537 6.75398 4.21288 6.86549 3.811 6.93417L3.73296 6.94751L3.66285 6.98431L3.60106 7.01674L3.52818 7.055L3.4714 7.1146C3.33967 7.25289 3.318 7.41534 3.318 7.50811V8.10811C3.318 8.27248 3.27156 8.38716 3.18851 8.48179C3.11452 8.55732 3.02753 8.5973 2.8912 8.5973C2.75487 8.5973 2.66788 8.55732 2.59389 8.48179C2.51085 8.38716 2.46441 8.27248 2.46441 8.10811V6.87568C2.46441 6.70798 2.51238 6.60371 2.58904 6.52323ZM3.32148 10.3709L3.33222 10.3829L3.3437 10.3942C3.38287 10.4327 3.44157 10.5227 3.44157 10.7514V11.027C3.44157 11.2535 3.38367 11.3581 3.33239 11.4119C3.30068 11.4452 3.22408 11.5 3.01478 11.5H2.81397C2.62298 11.5 2.53083 11.4541 2.48138 11.4113C2.43629 11.354 2.38717 11.2445 2.38717 11.027V10.7514C2.38717 10.5145 2.4452 10.4202 2.48091 10.3827C2.52883 10.3324 2.61573 10.2784 2.81397 10.2784H3.01478C3.21463 10.2784 3.28751 10.3328 3.32148 10.3709Z" />
</svg>
