<svg viewBox="0 0 24 20" >
<path d="M1.2 11.2444H19.9032L13.5516 17.8574C13.4381 17.973 13.3478 18.1108 13.2858 18.2629C13.2239 18.4151 13.1915 18.5785 13.1906 18.7437C13.1898 18.909 13.2204 19.0728 13.2807 19.2256C13.3411 19.3784 13.4299 19.5173 13.5422 19.6341C13.6544 19.751 13.7878 19.8435 13.9346 19.9063C14.0814 19.9691 14.2387 20.0009 14.3974 20C14.5562 19.999 14.7131 19.9653 14.8592 19.9008C15.0053 19.8363 15.1377 19.7422 15.2487 19.624L23.6487 10.8784C23.8736 10.6441 24 10.3263 24 9.99506C24 9.66376 23.8736 9.34604 23.6487 9.11174L15.2487 0.36607C15.1373 0.249857 15.0051 0.157691 14.8594 0.0948696C14.7138 0.0320478 14.5576 -0.000192695 14.4 8.66406e-07C14.1627 5.36207e-05 13.9307 0.0733569 13.7334 0.210644C13.5361 0.347932 13.3824 0.543039 13.2916 0.771301C13.2008 0.999563 13.177 1.25073 13.2233 1.49305C13.2696 1.73537 13.3838 1.95797 13.5516 2.1327L19.9032 8.74567H1.2C0.881739 8.74567 0.576514 8.87731 0.351471 9.11161C0.126428 9.34591 0 9.6637 0 9.99506C0 10.3264 0.126428 10.6442 0.351471 10.8785C0.576514 11.1128 0.881739 11.2444 1.2 11.2444Z" />
</svg>
