<svg viewBox="0 0 200 200" >
<path fill-rule="evenodd" clip-rule="evenodd" d="M90 42.5C90 46.0899 85.299 49 79.5 49C73.701 49 69 46.0899 69 42.5C69 38.9101 73.701 36 79.5 36C85.299 36 90 38.9101 90 42.5ZM87 42.5C87 42.8733 86.7457 43.6786 85.3456 44.5454C83.9915 45.3836 81.9325 46 79.5 46C77.0675 46 75.0085 45.3836 73.6544 44.5454C72.2543 43.6786 72 42.8733 72 42.5C72 42.1267 72.2543 41.3214 73.6544 40.4546C75.0085 39.6164 77.0675 39 79.5 39C81.9325 39 83.9915 39.6164 85.3456 40.4546C86.7457 41.3214 87 42.1267 87 42.5Z" />
<path fill-rule="evenodd" clip-rule="evenodd" d="M131 42.5C131 46.0899 126.299 49 120.5 49C114.701 49 110 46.0899 110 42.5C110 38.9101 114.701 36 120.5 36C126.299 36 131 38.9101 131 42.5ZM128 42.5C128 42.8733 127.746 43.6786 126.346 44.5454C124.992 45.3836 122.932 46 120.5 46C118.068 46 116.008 45.3836 114.654 44.5454C113.254 43.6786 113 42.8733 113 42.5C113 42.1267 113.254 41.3214 114.654 40.4546C116.008 39.6164 118.068 39 120.5 39C122.932 39 124.992 39.6164 126.346 40.4546C127.746 41.3214 128 42.1267 128 42.5Z" />
<path d="M111 71.8149C111.536 72.5906 112.255 73.0166 113 72.9999C113.265 72.9999 113.52 73.1579 113.707 73.4392C113.895 73.7205 114 74.102 114 74.4998C114 74.8976 113.895 75.2791 113.707 75.5604C113.52 75.8417 113.265 75.9997 113 75.9997C111.831 75.9994 110.702 75.3533 109.83 74.1848C109.291 73.4145 108.575 72.9849 107.83 72.9849C107.085 72.9849 106.369 73.4145 105.83 74.1848C104.942 75.3524 103.801 75.9962 102.62 75.9962C101.439 75.9962 100.298 75.3524 99.41 74.1848C98.8719 73.4111 98.1554 72.9791 97.41 72.9791C96.6646 72.9791 95.9481 73.4111 95.41 74.1848C94.5281 75.3684 93.3834 76.0156 92.2 75.9997C91.0201 76.0119 89.8793 75.3649 89 74.1848C88.4638 73.4091 87.7448 72.9831 87 72.9999C86.7348 72.9999 86.4804 72.8418 86.2929 72.5605C86.1054 72.2792 86 71.8977 86 71.4999C86 71.1021 86.1054 70.7206 86.2929 70.4393C86.4804 70.158 86.7348 70 87 70C88.1662 70.0026 89.2909 70.6486 90.16 71.8149C90.6981 72.5886 91.4146 73.0206 92.16 73.0206C92.9054 73.0206 93.6219 72.5886 94.16 71.8149C95.0482 70.6473 96.189 70.0035 97.37 70.0035C98.551 70.0035 99.6918 70.6473 100.58 71.8149C101.119 72.5852 101.835 73.0149 102.58 73.0149C103.325 73.0149 104.041 72.5852 104.58 71.8149C105.468 70.6473 106.609 70.0035 107.79 70.0035C108.971 70.0035 110.112 70.6473 111 71.8149Z" />
<path fill-rule="evenodd" clip-rule="evenodd" d="M93.228 151.838C93.324 151.946 93.45 152 93.606 152C93.762 152 93.894 151.946 94.002 151.838C94.11 151.73 94.164 151.604 94.164 151.46V148.112H95.442C95.586 148.112 95.706 148.064 95.802 147.968C95.91 147.872 95.964 147.752 95.964 147.608C95.964 147.464 95.91 147.344 95.802 147.248C95.706 147.152 95.586 147.104 95.442 147.104H94.164V139.94C94.164 139.796 94.11 139.67 94.002 139.562C93.906 139.454 93.78 139.4 93.624 139.4C93.564 139.4 93.486 139.418 93.39 139.454C93.306 139.478 93.234 139.532 93.174 139.616L87.378 147.194C87.294 147.302 87.252 147.422 87.252 147.554C87.252 147.698 87.306 147.83 87.414 147.95C87.522 148.058 87.648 148.112 87.792 148.112H93.084V151.46C93.084 151.604 93.132 151.73 93.228 151.838ZM93.084 147.104V141.348L88.7336 147.104H93.084Z" />
<path fill-rule="evenodd" clip-rule="evenodd" d="M99.4262 151.316C100.074 151.892 100.878 152.18 101.838 152.18C102.822 152.18 103.632 151.892 104.268 151.316C104.916 150.74 105.402 149.966 105.726 148.994C106.05 148.01 106.212 146.912 106.212 145.7C106.212 144.476 106.05 143.378 105.726 142.406C105.402 141.422 104.916 140.648 104.268 140.084C103.632 139.508 102.822 139.22 101.838 139.22C100.878 139.22 100.074 139.508 99.4262 140.084C98.7782 140.648 98.2922 141.422 97.9682 142.406C97.6442 143.378 97.4822 144.476 97.4822 145.7C97.4822 146.912 97.6442 148.01 97.9682 148.994C98.2922 149.966 98.7782 150.74 99.4262 151.316ZM103.602 150.398C103.134 150.842 102.546 151.064 101.838 151.064C101.142 151.064 100.554 150.842 100.074 150.398C99.6062 149.954 99.2462 149.33 98.9942 148.526C98.7542 147.71 98.6342 146.768 98.6342 145.7C98.6342 144.62 98.7542 143.678 98.9942 142.874C99.2462 142.058 99.6062 141.428 100.074 140.984C100.554 140.54 101.142 140.318 101.838 140.318C102.546 140.318 103.134 140.54 103.602 140.984C104.082 141.428 104.442 142.058 104.682 142.874C104.934 143.678 105.06 144.62 105.06 145.7C105.06 146.768 104.934 147.71 104.682 148.526C104.442 149.33 104.082 149.954 103.602 150.398Z" />
<path fill-rule="evenodd" clip-rule="evenodd" d="M113.425 151.838C113.521 151.946 113.647 152 113.803 152C113.959 152 114.091 151.946 114.199 151.838C114.307 151.73 114.361 151.604 114.361 151.46V148.112H115.639C115.783 148.112 115.903 148.064 115.999 147.968C116.107 147.872 116.161 147.752 116.161 147.608C116.161 147.464 116.107 147.344 115.999 147.248C115.903 147.152 115.783 147.104 115.639 147.104H114.361V139.94C114.361 139.796 114.307 139.67 114.199 139.562C114.103 139.454 113.977 139.4 113.821 139.4C113.761 139.4 113.683 139.418 113.587 139.454C113.503 139.478 113.431 139.532 113.371 139.616L107.575 147.194C107.491 147.302 107.449 147.422 107.449 147.554C107.449 147.698 107.503 147.83 107.611 147.95C107.719 148.058 107.845 148.112 107.989 148.112H113.281V151.46C113.281 151.604 113.329 151.73 113.425 151.838ZM113.281 147.104V141.348L108.931 147.104H113.281Z" />
<path fill-rule="evenodd" clip-rule="evenodd" d="M50.1494 25.641C50.1494 11.4799 61.6116 0 75.751 0H126.954C141.094 0 152.556 11.4799 152.556 25.641V76.9231C152.556 91.0842 141.094 102.564 126.954 102.564H126.937C126.674 106.573 123.343 109.744 119.274 109.744H113.533C113.604 110.415 113.641 111.099 113.641 111.795C113.641 112.49 113.604 113.175 113.533 113.846H116.714C124.503 113.846 130.938 119.653 131.939 127.179H146.329C146.657 127.147 146.987 127.154 147.312 127.2C147.931 127.267 148.502 127.492 148.985 127.833C149.278 128.025 149.55 128.259 149.794 128.533L158.837 138.695C159.368 139.292 159.693 140.002 159.817 140.736L159.991 141.538L160.236 144.615V145.534H152.577V143.994L144.004 134.359H132.075V160C132.075 168.497 125.197 175.385 116.714 175.385H85.9916C77.508 175.385 70.6306 168.497 70.6306 160V135.385H55.1468C54.9197 135.401 54.6914 135.397 54.4649 135.373C53.5715 135.3 52.7707 134.9 52.1827 134.292L41.2112 123.718C40.8218 123.343 40.5376 122.906 40.3585 122.44L39.9087 120.513V116.923H47.0772V119.269L56.3493 128.205H70.6642C71.1912 120.187 77.8521 113.846 85.9916 113.846H89.1721C89.1007 113.175 89.0638 112.49 89.0638 111.795C89.0638 111.099 89.1007 110.415 89.1721 109.744H83.4314C79.3617 109.744 76.0313 106.573 75.7678 102.564H75.751C61.6116 102.564 50.1494 91.0842 50.1494 76.9231V25.641ZM55.2697 25.641C55.2697 14.3121 64.4395 5.12821 75.751 5.12821H126.954C138.266 5.12821 147.435 14.3121 147.435 25.641V76.9231C147.435 88.252 138.266 97.4359 126.954 97.4359H75.751C64.4395 97.4359 55.2697 88.252 55.2697 76.9231V25.641ZM75.751 160C75.751 165.664 80.3359 170.256 85.9916 170.256H116.714C122.369 170.256 126.954 165.664 126.954 160V129.231C126.954 123.566 122.369 118.974 116.714 118.974H85.9916C80.3359 118.974 75.751 123.566 75.751 129.231V160ZM92.136 111.795C92.136 112.496 92.1804 113.181 92.2651 113.846H110.44C110.525 113.181 110.569 112.496 110.569 111.795C110.569 111.094 110.525 110.409 110.44 109.744H92.2651C92.1804 110.409 92.136 111.094 92.136 111.795ZM123.854 102.564C123.599 104.872 121.646 106.667 119.274 106.667H83.4314C81.0594 106.667 79.106 104.872 78.8513 102.564H123.854Z" />
<path fill-rule="evenodd" clip-rule="evenodd" d="M90.5999 189.744L84.9675 177.436H117.738L111.593 189.744L106.674 190.769L101.353 200L96.0314 190.769L90.5999 189.744ZM113.254 180.513L110.456 187.752L104.726 190.769H104.731L101.353 195.897L97.974 190.769H97.9724L92.249 187.752L89.4511 180.513H113.254Z" />
<path fill-rule="evenodd" clip-rule="evenodd" d="M39 112.415C39 111.745 39.5415 111.203 40.2095 111.203L46.7245 111.203C47.3926 111.203 47.9341 111.745 47.9342 112.414L47.9342 114.837C47.9342 115.506 47.3927 116.049 46.7247 116.049L40.2097 116.049C39.5416 116.049 39.0001 115.506 39.0001 114.837L39 112.415ZM41.7896 112.414L43.0966 112.414L43.0788 114.837L41.7719 114.837L41.7896 112.414ZM43.6837 114.837L43.7014 112.414L45.0084 112.414L44.9907 114.837L43.6837 114.837ZM45.5955 114.837L46.7246 114.837L46.7246 112.414L45.6132 112.414L45.5955 114.837ZM41.1848 112.414L40.2096 112.414L40.2096 114.837L41.167 114.837L41.1848 112.414Z" />
<path fill-rule="evenodd" clip-rule="evenodd" d="M151.694 147.44C151.694 146.743 152.258 146.178 152.954 146.178L159.74 146.178C160.436 146.178 161 146.743 161 147.44L161 149.963C161 150.66 160.436 151.225 159.74 151.225L152.954 151.225C152.259 151.225 151.695 150.66 151.694 149.964L151.694 147.44ZM154.6 147.44L155.961 147.44L155.943 149.963L154.581 149.963L154.6 147.44ZM156.573 149.963L156.591 147.44L157.953 147.44L157.934 149.963L156.573 149.963ZM158.564 149.963L159.74 149.963L159.74 147.44L158.583 147.44L158.564 149.963ZM153.97 147.44L152.954 147.44L152.954 149.964L153.952 149.963L153.97 147.44Z" />
</svg>
