<svg viewBox="0 0 122 200" >
<path fill-rule="evenodd" clip-rule="evenodd" d="M52.1119 38.9744C52.1119 44.6388 47.527 49.2308 41.8713 49.2308C36.2155 49.2308 31.6306 44.6388 31.6306 38.9744C31.6306 33.3099 36.2155 28.718 41.8713 28.718C47.527 28.718 52.1119 33.3099 52.1119 38.9744ZM49.0397 38.9744C49.0397 42.9395 45.8303 46.1539 41.8713 46.1539C37.9123 46.1539 34.7029 42.9395 34.7029 38.9744C34.7029 35.0092 37.9123 31.7949 41.8713 31.7949C45.8303 31.7949 49.0397 35.0092 49.0397 38.9744Z" />
<path fill-rule="evenodd" clip-rule="evenodd" d="M82.8339 49.2308C88.4896 49.2308 93.0745 44.6388 93.0745 38.9744C93.0745 33.3099 88.4896 28.718 82.8339 28.718C77.1781 28.718 72.5932 33.3099 72.5932 38.9744C72.5932 44.6388 77.1781 49.2308 82.8339 49.2308ZM82.8339 46.1539C86.7929 46.1539 90.0023 42.9395 90.0023 38.9744C90.0023 35.0092 86.7929 31.7949 82.8339 31.7949C78.8748 31.7949 75.6654 35.0092 75.6654 38.9744C75.6654 42.9395 78.8748 46.1539 82.8339 46.1539Z" />
<path d="M49.0397 64.6154C51.6157 70.0805 56.017 73.8462 62.293 73.8462C68.569 73.8462 73.0894 70.0805 75.6654 64.6154L74.6414 63.5898L73.0842 64.6154C70.7943 68.3365 66.7829 70.7692 62.293 70.7692C57.803 70.7692 53.7917 68.3365 51.5017 64.6154L50.0638 63.5898L49.0397 64.6154Z" />
<path fill-rule="evenodd" clip-rule="evenodd" d="M60.106 142.516H66.9696C67.0438 142.516 67.1149 142.483 67.1674 142.424C67.2198 142.365 67.2493 142.286 67.2493 142.203V138.955C67.2493 138.872 67.2198 138.792 67.1674 138.734C67.1149 138.675 67.0438 138.642 66.9696 138.642H60.106C60.0318 138.642 59.9606 138.675 59.9082 138.734C59.8557 138.792 59.8263 138.872 59.8263 138.955V142.204C59.8265 142.287 59.856 142.366 59.9085 142.425C59.9609 142.483 60.0319 142.516 60.106 142.516ZM60.3857 139.267H66.6899V141.889H60.3857V139.267Z" />
<path d="M59.8201 144.488H67.2568V145.115H59.8201V144.488Z" />
<path d="M67.2566 146.438H63.2523V147.064H67.2566V146.438Z" />
<path fill-rule="evenodd" clip-rule="evenodd" d="M70.3165 138.545C70.2933 138.502 70.2606 138.466 70.2215 138.442C70.1825 138.417 70.1384 138.404 70.0936 138.404H68.0207V136.333C68.0207 136.256 67.9932 136.182 67.9444 136.127C67.8956 136.072 67.8293 136.042 67.7603 136.042H56.8419C56.6321 136.042 56.4244 136.089 56.2308 136.18C56.0372 136.271 55.8615 136.403 55.7138 136.57C55.4147 136.91 55.2479 137.368 55.25 137.846V151.154H55.2529C55.2586 151.575 55.4 151.979 55.6511 152.292C55.815 152.501 56.0168 152.668 56.2431 152.783C56.4695 152.898 56.715 152.958 56.9635 152.958H67.7589C67.828 152.958 67.8943 152.928 67.9431 152.873C67.9919 152.818 68.0194 152.744 68.0194 152.667V149.934H70.0936C70.1385 149.934 70.1826 149.921 70.2217 149.896C70.2376 149.886 70.2525 149.874 70.2661 149.861C70.2772 149.85 70.2875 149.838 70.2968 149.825C70.304 149.815 70.3107 149.804 70.3167 149.793C70.3297 149.769 70.3395 149.743 70.3458 149.716C70.3507 149.694 70.3535 149.673 70.3541 149.65C70.3553 149.6 70.345 149.55 70.324 149.506L69.8047 148.404L70.324 147.3C70.3447 147.256 70.3548 147.206 70.3534 147.156C70.3519 147.106 70.339 147.057 70.3159 147.014C70.2927 146.971 70.2601 146.936 70.2211 146.911C70.1822 146.887 70.1383 146.874 70.0936 146.874H68.0207V145.699H70.0936C70.1385 145.699 70.1826 145.686 70.2217 145.661C70.2608 145.637 70.2935 145.601 70.3167 145.558C70.3399 145.515 70.3528 145.466 70.3541 145.416C70.3553 145.365 70.345 145.316 70.324 145.271L69.8047 144.169L70.324 143.066C70.3449 143.022 70.3552 142.972 70.3539 142.922C70.3526 142.872 70.3398 142.823 70.3166 142.78C70.2934 142.737 70.2607 142.701 70.2216 142.677C70.1825 142.652 70.1384 142.639 70.0936 142.639H68.0207V141.465H70.0936C70.1385 141.465 70.1826 141.452 70.2217 141.427C70.2316 141.421 70.2411 141.414 70.2502 141.406C70.2574 141.4 70.2643 141.394 70.2708 141.387C70.2886 141.368 70.3041 141.347 70.3167 141.324C70.3399 141.281 70.3528 141.232 70.3541 141.181C70.3548 141.152 70.3517 141.124 70.345 141.096C70.343 141.088 70.3407 141.08 70.338 141.072C70.3341 141.06 70.3294 141.048 70.324 141.037L69.8047 139.935L70.324 138.832C70.345 138.788 70.3553 138.738 70.354 138.687C70.3526 138.637 70.3397 138.588 70.3165 138.545ZM67.4998 136.625V149.35H57.9013V136.625H67.4998ZM56.0847 136.98C56.1838 136.868 56.3018 136.779 56.4317 136.718C56.5617 136.657 56.7011 136.625 56.8419 136.625H57.3802V149.352H56.8412C56.4441 149.351 56.0617 149.519 55.7708 149.822V137.846C55.7707 137.522 55.8833 137.212 56.0847 136.98ZM56.9635 152.375C56.7892 152.374 56.6171 152.331 56.4583 152.25C56.2996 152.17 56.1577 152.053 56.0419 151.907C55.9422 151.784 55.8673 151.638 55.8224 151.48C55.7775 151.322 55.7635 151.155 55.7815 150.99C55.8114 150.726 55.9185 150.479 56.0862 150.29C56.1846 150.178 56.3021 150.088 56.4318 150.027C56.5615 149.966 56.7008 149.935 56.8414 149.935H67.4985V151.165H61.3697V151.749H67.4985V152.375H56.9635ZM69.6618 147.457L69.2798 148.267C69.26 148.309 69.2496 148.356 69.2496 148.404C69.2496 148.451 69.26 148.498 69.2798 148.54L69.6618 149.35H68.0212V147.457H69.6618ZM69.6618 143.222L69.2798 144.033C69.26 144.075 69.2496 144.122 69.2496 144.17C69.2496 144.217 69.26 144.264 69.2798 144.306L69.6618 145.117H68.0212V143.222H69.6618ZM69.2798 140.07L69.6618 140.881H68.0212V138.988H69.6618L69.2798 139.798C69.26 139.84 69.2497 139.887 69.2497 139.934C69.2497 139.982 69.26 140.029 69.2798 140.07Z" />
<path fill-rule="evenodd" clip-rule="evenodd" d="M62.5 159C70.5081 159 77 152.508 77 144.5C77 136.492 70.5081 130 62.5 130C54.4919 130 48 136.492 48 144.5C48 152.508 54.4919 159 62.5 159ZM62.5 157.792C69.8408 157.792 75.7917 151.841 75.7917 144.5C75.7917 137.159 69.8408 131.208 62.5 131.208C55.1592 131.208 49.2083 137.159 49.2083 144.5C49.2083 151.841 55.1592 157.792 62.5 157.792Z" />
<path fill-rule="evenodd" clip-rule="evenodd" d="M11.1494 25.641C11.1494 11.4799 22.6116 0 36.751 0H87.9542C102.094 0 113.556 11.4799 113.556 25.641V76.9231C113.556 91.0842 102.094 102.564 87.9542 102.564H87.9374C87.6739 106.573 84.3435 109.744 80.2737 109.744H74.5331C74.6045 110.415 74.6414 111.099 74.6414 111.795C74.6414 112.49 74.6045 113.175 74.5331 113.846H77.7136C85.5027 113.846 91.9378 119.653 92.9391 127.179H107.329C107.657 127.147 107.987 127.154 108.312 127.2C108.931 127.267 109.502 127.492 109.985 127.833C110.278 128.025 110.55 128.259 110.794 128.533L119.837 138.695C120.368 139.292 120.693 140.002 120.817 140.736L120.991 141.538L121.236 144.615V145.534H113.577V143.994L105.004 134.359H93.0745V160C93.0745 168.497 86.1972 175.385 77.7136 175.385H46.9916C38.508 175.385 31.6306 168.497 31.6306 160V135.385H16.1468C15.9197 135.401 15.6914 135.397 15.4649 135.373C14.5715 135.3 13.7707 134.9 13.1827 134.292L2.21124 123.718C1.82178 123.343 1.5376 122.906 1.35855 122.44L0.908722 120.513V116.923H8.07715V119.269L17.3493 128.205H31.6642C32.1912 120.187 38.8521 113.846 46.9916 113.846H50.1721C50.1007 113.175 50.0638 112.49 50.0638 111.795C50.0638 111.099 50.1007 110.415 50.1721 109.744H44.4315C40.3617 109.744 37.0312 106.573 36.7678 102.564H36.751C22.6116 102.564 11.1494 91.0842 11.1494 76.9231V25.641ZM36.751 5.1282H87.9542C99.2657 5.1282 108.435 14.3121 108.435 25.641V76.9231C108.435 88.252 99.2657 97.4359 87.9542 97.4359H36.751C25.4395 97.4359 16.2697 88.252 16.2697 76.9231V25.641C16.2697 14.3121 25.4395 5.1282 36.751 5.1282ZM36.751 160C36.751 165.664 41.3359 170.256 46.9916 170.256H77.7136C83.3693 170.256 87.9542 165.664 87.9542 160V129.231C87.9542 123.566 83.3693 118.974 77.7136 118.974H46.9916C41.3359 118.974 36.751 123.566 36.751 129.231V160ZM53.2651 113.846H71.4401C71.5248 113.181 71.5692 112.496 71.5692 111.795C71.5692 111.094 71.5248 110.409 71.4401 109.744H53.2651C53.1804 110.409 53.136 111.094 53.136 111.795C53.136 112.496 53.1804 113.181 53.2651 113.846ZM80.2737 106.667H44.4315C42.0594 106.667 40.106 104.872 39.8513 102.564H84.8539C84.5992 104.872 82.6457 106.667 80.2737 106.667Z" />
<path fill-rule="evenodd" clip-rule="evenodd" d="M51.5999 189.744L45.9675 177.436H78.7376L72.5932 189.744L67.6738 190.769L62.3526 200L57.0314 190.769L51.5999 189.744ZM74.254 180.513L71.4561 187.752L65.7258 190.769H65.7311L62.3526 195.897L58.9741 190.769H58.9724L53.249 187.752L50.4511 180.513H74.254Z" />
<path fill-rule="evenodd" clip-rule="evenodd" d="M0 112.415C-3.05176e-05 111.745 0.541504 111.203 1.20953 111.203L7.72455 111.203C8.39258 111.203 8.93414 111.745 8.93414 112.414L8.93423 114.837C8.93423 115.506 8.3927 116.049 7.72467 116.049L1.20969 116.049C0.541656 116.049 9.15527e-05 115.506 6.10352e-05 114.837L0 112.415ZM2.78961 112.414L4.09662 112.414L4.07886 114.837L2.77185 114.837L2.78961 112.414ZM4.68365 114.837L4.70142 112.414L6.00842 112.414L5.99066 114.837L4.68365 114.837ZM6.59546 114.837L7.72464 114.837L7.72458 112.414L6.61322 112.414L6.59546 114.837ZM2.18481 112.414L1.20956 112.414L1.20966 114.837L2.16705 114.837L2.18481 112.414Z" />
<path fill-rule="evenodd" clip-rule="evenodd" d="M112.694 147.44C112.694 146.743 113.258 146.178 113.954 146.178L120.74 146.178C121.436 146.178 122 146.743 122 147.44L122 149.963C122 150.66 121.436 151.225 120.74 151.225L113.954 151.225C113.259 151.225 112.695 150.66 112.694 149.964L112.694 147.44ZM115.6 147.44L116.961 147.44L116.943 149.963L115.581 149.963L115.6 147.44ZM117.573 149.963L117.591 147.44L118.953 147.44L118.934 149.963L117.573 149.963ZM119.564 149.963L120.74 149.963L120.74 147.44L119.583 147.44L119.564 149.963ZM114.97 147.44L113.954 147.44L113.954 149.964L114.952 149.963L114.97 147.44Z" />
</svg>
