<svg viewBox="0 0 294 480">
<path fill-rule="evenodd" clip-rule="evenodd" d="M125.669 93.5385C125.669 107.133 114.665 118.154 101.091 118.154C87.5172 118.154 76.5135 107.133 76.5135 93.5385C76.5135 79.9438 87.5172 68.9231 101.091 68.9231C114.665 68.9231 125.669 79.9438 125.669 93.5385ZM118.295 93.5385C118.295 103.055 110.593 110.769 101.091 110.769C91.5895 110.769 83.8868 103.055 83.8868 93.5385C83.8868 84.0222 91.5895 76.3077 101.091 76.3077C110.593 76.3077 118.295 84.0222 118.295 93.5385Z" />
<path fill-rule="evenodd" clip-rule="evenodd" d="M199.401 118.154C212.975 118.154 223.979 107.133 223.979 93.5385C223.979 79.9438 212.975 68.9231 199.401 68.9231C185.827 68.9231 174.824 79.9438 174.824 93.5385C174.824 107.133 185.827 118.154 199.401 118.154ZM199.401 110.769C208.903 110.769 216.606 103.055 216.606 93.5385C216.606 84.0222 208.903 76.3077 199.401 76.3077C189.9 76.3077 182.197 84.0222 182.197 93.5385C182.197 103.055 189.9 110.769 199.401 110.769Z" />
<path d="M118.295 155.077C124.478 168.193 135.041 177.231 150.103 177.231C165.166 177.231 176.015 168.193 182.197 155.077L179.739 152.615L176.002 155.077C170.506 164.008 160.879 169.846 150.103 169.846C139.327 169.846 129.7 164.008 124.204 155.077L120.753 152.615L118.295 155.077Z" />
<path d="M147.279 329.555C147.924 330.058 149.029 330.31 150.594 330.31C152.159 330.31 153.287 330.081 153.977 329.624C154.668 329.121 155.013 328.207 155.013 326.881V325.578C155.013 325.009 155.415 324.08 155.805 323.18C156.291 322.057 156.758 320.979 156.4 320.7C156.06 320.435 154.932 320.852 153.705 321.306C152.604 321.714 151.425 322.15 150.663 322.15C149.994 322.15 148.877 321.748 147.787 321.355C146.475 320.883 145.202 320.425 144.8 320.7C144.422 320.95 144.91 321.988 145.429 323.095C145.86 324.013 146.313 324.978 146.313 325.578V326.881C146.313 328.161 146.635 329.052 147.279 329.555Z" />
<path d="M158.27 368.816C156.624 368.372 154.806 367.882 154.806 367.267V338.949C154.806 337.761 154.414 336.778 153.632 336.001C152.849 335.178 151.86 334.766 150.663 334.766C149.466 334.766 148.476 335.178 147.694 336.001C146.911 336.778 146.52 337.761 146.52 338.949V367.267C146.52 367.882 144.702 368.372 143.056 368.816C141.521 369.23 140.135 369.603 140.513 370C141.295 370.777 149.466 371.45 150.663 371.45C151.86 371.45 160.03 370.777 160.813 370C161.19 369.603 159.805 369.23 158.27 368.816Z" />
<path fill-rule="evenodd" clip-rule="evenodd" d="M150.6 381.6C169.819 381.6 185.4 366.019 185.4 346.8C185.4 327.58 169.819 312 150.6 312C131.381 312 115.8 327.58 115.8 346.8C115.8 366.019 131.381 381.6 150.6 381.6ZM150.6 378.7C168.218 378.7 182.5 364.418 182.5 346.8C182.5 329.182 168.218 314.9 150.6 314.9C132.982 314.9 118.7 329.182 118.7 346.8C118.7 364.418 132.982 378.7 150.6 378.7Z" />
<path fill-rule="evenodd" clip-rule="evenodd" d="M27.3585 61.5384C27.3585 27.5517 54.8678 0 88.8024 0H211.69C245.625 0 273.134 27.5517 273.134 61.5384V184.615C273.134 218.602 245.625 246.154 211.69 246.154H211.65C211.017 255.776 203.024 263.385 193.257 263.385H179.479C179.651 264.995 179.739 266.638 179.739 268.308C179.739 269.977 179.651 271.62 179.479 273.231H187.113C205.807 273.231 221.251 287.166 223.654 305.231H258.191C258.977 305.153 259.769 305.17 260.549 305.281C262.034 305.441 263.405 305.98 264.565 306.798C265.266 307.26 265.92 307.821 266.505 308.478L288.208 332.869C289.483 334.302 290.263 336.004 290.561 337.765L290.978 339.692L291.567 347.077V349.281H273.185V345.585L252.61 322.462H223.979V384C223.979 404.392 207.473 420.923 187.113 420.923H113.38C93.0192 420.923 76.5135 404.392 76.5135 384V324.923H39.3524C38.8074 324.961 38.2592 324.952 37.7156 324.895C35.5717 324.721 33.6497 323.76 32.2386 322.301L5.90699 296.924C4.97227 296.024 4.29024 294.974 3.86045 293.855L2.78086 289.231V280.615H19.9852V286.247L42.2382 307.692H76.5942C77.8589 288.448 93.8451 273.231 113.38 273.231H121.013C120.842 271.62 120.753 269.977 120.753 268.308C120.753 266.638 120.842 264.995 121.013 263.385H107.236C97.4681 263.385 89.475 255.776 88.8426 246.154H88.8024C54.8678 246.154 27.3585 218.602 27.3585 184.615V61.5384ZM88.8024 12.3077H211.69C238.838 12.3077 260.845 34.349 260.845 61.5384V184.615C260.845 211.805 238.838 233.846 211.69 233.846H88.8024C61.6547 233.846 39.6472 211.805 39.6472 184.615V61.5384C39.6472 34.349 61.6547 12.3077 88.8024 12.3077ZM88.8024 384C88.8024 397.595 99.8061 408.615 113.38 408.615H187.113C200.686 408.615 211.69 397.595 211.69 384V310.154C211.69 296.559 200.686 285.538 187.113 285.538H113.38C99.8061 285.538 88.8024 296.559 88.8024 310.154V384ZM128.436 273.231H172.056C172.259 271.634 172.366 269.989 172.366 268.308C172.366 266.626 172.259 264.982 172.056 263.385H128.436C128.233 264.982 128.126 266.626 128.126 268.308C128.126 269.989 128.233 271.634 128.436 273.231ZM193.257 256H107.236C101.543 256 96.8544 251.692 96.2432 246.154H204.249C203.638 251.692 198.95 256 193.257 256Z" />
<path fill-rule="evenodd" clip-rule="evenodd" d="M124.44 455.385L110.922 425.846H189.57L174.824 455.385L163.017 457.846L150.246 480L137.475 457.846L124.44 455.385ZM178.81 433.231L172.095 450.604L158.342 457.846H158.355L150.246 470.154L142.138 457.846H142.134L128.398 450.605L121.683 433.231H178.81Z" />
<path fill-rule="evenodd" clip-rule="evenodd" d="M0.600006 269.795C0.600006 268.189 1.89961 266.887 3.50288 266.887L19.1389 266.887C20.7422 266.887 22.0419 268.188 22.0419 269.794L22.0421 275.609C22.0422 277.215 20.7425 278.517 19.1392 278.517L3.50318 278.517C1.8999 278.517 0.600151 277.215 0.600151 275.61L0.600006 269.795ZM7.29507 269.795L10.4319 269.794L10.3893 275.609L7.25245 275.609L7.29507 269.795ZM11.8408 275.609L11.8834 269.794L15.0202 269.794L14.9776 275.609L11.8408 275.609ZM16.4291 275.609L19.1392 275.609L19.1391 269.794L16.4717 269.794L16.4291 275.609ZM5.84356 269.795L3.50303 269.795L3.50318 275.61L5.80093 275.61L5.84356 269.795Z" />
<path fill-rule="evenodd" clip-rule="evenodd" d="M271.067 353.856C271.067 352.183 272.42 350.828 274.09 350.827L290.376 350.827C292.046 350.827 293.4 352.183 293.4 353.855L293.4 359.912C293.4 361.584 292.046 362.94 290.376 362.94L274.09 362.941C272.421 362.941 271.067 361.585 271.067 359.912L271.067 353.856ZM278.04 353.856L281.307 353.856L281.263 359.912L277.996 359.912L278.04 353.856ZM282.775 359.912L282.819 353.855L286.086 353.855L286.042 359.912L282.775 359.912ZM287.554 359.912L290.376 359.912L290.376 353.855L287.598 353.855L287.554 359.912ZM276.528 353.856L274.09 353.856L274.09 359.912L276.484 359.912L276.528 353.856Z" />
</svg>
