<svg viewBox="0 0 200 200" xmlns="http://www.w3.org/2000/svg">
<path fill-rule="evenodd" clip-rule="evenodd" d="M91.1119 38.9744C91.1119 44.6388 86.5271 49.2308 80.8713 49.2308C75.2156 49.2308 70.6306 44.6388 70.6306 38.9744C70.6306 33.3099 75.2156 28.718 80.8713 28.718C86.5271 28.718 91.1119 33.3099 91.1119 38.9744ZM88.0398 38.9744C88.0398 42.9395 84.8303 46.1539 80.8713 46.1539C76.9122 46.1539 73.7029 42.9395 73.7029 38.9744C73.7029 35.0092 76.9122 31.7949 80.8713 31.7949C84.8303 31.7949 88.0398 35.0092 88.0398 38.9744Z" />
<path fill-rule="evenodd" clip-rule="evenodd" d="M121.834 49.2308C127.49 49.2308 132.074 44.6388 132.074 38.9744C132.074 33.3099 127.49 28.718 121.834 28.718C116.178 28.718 111.593 33.3099 111.593 38.9744C111.593 44.6388 116.178 49.2308 121.834 49.2308ZM121.834 46.1539C125.793 46.1539 129.002 42.9395 129.002 38.9744C129.002 35.0092 125.793 31.7949 121.834 31.7949C117.875 31.7949 114.665 35.0092 114.665 38.9744C114.665 42.9395 117.875 46.1539 121.834 46.1539Z" />
<path d="M88.0398 64.6154C90.6157 70.0805 95.017 73.8462 101.293 73.8462C107.569 73.8462 112.089 70.0805 114.665 64.6154L113.641 63.5898L112.084 64.6154C109.794 68.3365 105.783 70.7692 101.293 70.7692C96.803 70.7692 92.7916 68.3365 90.5017 64.6154L89.0638 63.5898L88.0398 64.6154Z" />
<path d="M94.9524 145C94.9524 146.657 93.6199 148 91.9762 148C90.3324 148 89 146.657 89 145C89 143.343 90.3324 142 91.9762 142C93.6199 142 94.9524 143.343 94.9524 145Z" />
<path d="M104.476 145C104.476 146.657 103.144 148 101.5 148C99.8563 148 98.5238 146.657 98.5238 145C98.5238 143.343 99.8563 142 101.5 142C103.144 142 104.476 143.343 104.476 145Z" />
<path d="M114 145C114 146.657 112.668 148 111.024 148C109.38 148 108.048 146.657 108.048 145C108.048 143.343 109.38 142 111.024 142C112.668 142 114 143.343 114 145Z" />
<path fill-rule="evenodd" clip-rule="evenodd" d="M50.1494 25.641C50.1494 11.4799 61.6116 0 75.751 0H126.954C141.094 0 152.556 11.4799 152.556 25.641V76.9231C152.556 91.0842 141.094 102.564 126.954 102.564H126.937C126.674 106.573 123.344 109.744 119.274 109.744H113.533C113.604 110.415 113.641 111.099 113.641 111.795C113.641 112.49 113.604 113.175 113.533 113.846H116.714C124.503 113.846 130.938 119.653 131.939 127.179H146.329C146.657 127.147 146.987 127.154 147.312 127.2C147.931 127.267 148.502 127.492 148.985 127.833C149.278 128.025 149.55 128.259 149.794 128.533L158.837 138.695C159.368 139.292 159.693 140.002 159.817 140.736L159.991 141.538L160.236 144.615V145.534H152.577V143.994L144.004 134.359H132.074V160C132.074 168.497 125.197 175.385 116.714 175.385H85.9916C77.5079 175.385 70.6306 168.497 70.6306 160V135.385H55.1469C54.9197 135.401 54.6914 135.397 54.4648 135.373C53.5715 135.3 52.7708 134.9 52.1827 134.292L41.2112 123.718C40.8218 123.343 40.5376 122.906 40.3585 122.44L39.9087 120.513V116.923H47.0771V119.269L56.3492 128.205H70.6642C71.1912 120.187 77.8521 113.846 85.9916 113.846H89.1721C89.1007 113.175 89.0638 112.49 89.0638 111.795C89.0638 111.099 89.1007 110.415 89.1721 109.744H83.4314C79.3617 109.744 76.0312 106.573 75.7678 102.564H75.751C61.6116 102.564 50.1494 91.0842 50.1494 76.9231V25.641ZM75.751 5.1282H126.954C138.266 5.1282 147.435 14.3121 147.435 25.641V76.9231C147.435 88.252 138.266 97.4359 126.954 97.4359H75.751C64.4395 97.4359 55.2697 88.252 55.2697 76.9231V25.641C55.2697 14.3121 64.4395 5.1282 75.751 5.1282ZM75.751 160C75.751 165.664 80.3358 170.256 85.9916 170.256H116.714C122.369 170.256 126.954 165.664 126.954 160V129.231C126.954 123.566 122.369 118.974 116.714 118.974H85.9916C80.3358 118.974 75.751 123.566 75.751 129.231V160ZM92.2651 113.846H110.44C110.525 113.181 110.569 112.496 110.569 111.795C110.569 111.094 110.525 110.409 110.44 109.744H92.2651C92.1803 110.409 92.136 111.094 92.136 111.795C92.136 112.496 92.1803 113.181 92.2651 113.846ZM119.274 106.667H83.4314C81.0594 106.667 79.106 104.872 78.8513 102.564H123.854C123.599 104.872 121.646 106.667 119.274 106.667Z" />
<path fill-rule="evenodd" clip-rule="evenodd" d="M90.5999 189.744L84.9675 177.436H117.738L111.593 189.744L106.674 190.769L101.353 200L96.0314 190.769L90.5999 189.744ZM113.254 180.513L110.456 187.752L104.726 190.769H104.731L101.353 195.897L97.974 190.769H97.9724L92.249 187.752L89.4512 180.513H113.254Z" />
<path fill-rule="evenodd" clip-rule="evenodd" d="M39 112.415C39 111.745 39.5415 111.203 40.2096 111.203L46.7245 111.203C47.3926 111.203 47.9341 111.745 47.9342 112.414V114.837C47.9342 115.506 47.3927 116.049 46.7247 116.049L40.2097 116.049C39.5416 116.049 39.0001 115.506 39.0001 114.837L39 112.415ZM41.7897 112.414L43.0967 112.414L43.0789 114.837L41.7719 114.837L41.7897 112.414ZM43.6836 114.837L43.7014 112.414L45.0084 112.414L44.9906 114.837L43.6836 114.837ZM45.5955 114.837L46.7246 114.837V112.414L45.6133 112.414L45.5955 114.837ZM41.1848 112.414L40.2096 112.414V114.837L41.167 114.837L41.1848 112.414Z" />
<path fill-rule="evenodd" clip-rule="evenodd" d="M151.694 147.44C151.694 146.743 152.258 146.178 152.954 146.178L159.74 146.178C160.436 146.178 161 146.743 161 147.44L161 149.963C161 150.66 160.436 151.225 159.74 151.225L152.954 151.225C152.259 151.225 151.694 150.66 151.694 149.964V147.44ZM154.6 147.44L155.961 147.44L155.943 149.963L154.582 149.963L154.6 147.44ZM156.573 149.963L156.591 147.44L157.953 147.44L157.934 149.963L156.573 149.963ZM158.564 149.963L159.74 149.963V147.44L158.583 147.44L158.564 149.963ZM153.97 147.44L152.954 147.44L152.954 149.964L153.952 149.963L153.97 147.44Z" />
</svg>
