<svg  viewBox="0 0 122 200" >
<path fill-rule="evenodd" clip-rule="evenodd" d="M52.1119 38.9744C52.1119 44.6388 47.527 49.2308 41.8713 49.2308C36.2155 49.2308 31.6306 44.6388 31.6306 38.9744C31.6306 33.3099 36.2155 28.718 41.8713 28.718C47.527 28.718 52.1119 33.3099 52.1119 38.9744ZM49.0397 38.9744C49.0397 42.9395 45.8303 46.1539 41.8713 46.1539C37.9123 46.1539 34.7028 42.9395 34.7028 38.9744C34.7028 35.0092 37.9123 31.7949 41.8713 31.7949C45.8303 31.7949 49.0397 35.0092 49.0397 38.9744Z" />
<path fill-rule="evenodd" clip-rule="evenodd" d="M82.8339 49.2308C88.4896 49.2308 93.0745 44.6388 93.0745 38.9744C93.0745 33.3099 88.4896 28.718 82.8339 28.718C77.1781 28.718 72.5932 33.3099 72.5932 38.9744C72.5932 44.6388 77.1781 49.2308 82.8339 49.2308ZM82.8339 46.1539C86.7929 46.1539 90.0023 42.9395 90.0023 38.9744C90.0023 35.0092 86.7929 31.7949 82.8339 31.7949C78.8748 31.7949 75.6654 35.0092 75.6654 38.9744C75.6654 42.9395 78.8748 46.1539 82.8339 46.1539Z" />
<path d="M62.293 73.8462C56.017 73.8462 51.6157 70.0805 49.0397 64.6154L50.0638 63.5897L51.5017 64.6154C53.7916 68.3365 57.803 70.7692 62.293 70.7692C66.7829 70.7692 70.7943 68.3365 73.0842 64.6154L74.6413 63.5897L75.6654 64.6154C73.0894 70.0805 68.569 73.8462 62.293 73.8462Z" />
<path fill-rule="evenodd" clip-rule="evenodd" d="M11.1494 25.641C11.1494 11.4799 22.6116 0 36.751 0H87.9542C102.094 0 113.556 11.4799 113.556 25.641V76.9231C113.556 91.0842 102.094 102.564 87.9542 102.564H87.9374C87.6739 106.573 84.3435 109.744 80.2737 109.744H74.5331C74.6045 110.415 74.6413 111.099 74.6413 111.795C74.6413 112.49 74.6045 113.175 74.5331 113.846H77.7135C85.5027 113.846 91.9379 119.653 92.9392 127.179H107.329C107.657 127.147 107.987 127.154 108.312 127.2C108.931 127.267 109.502 127.492 109.985 127.833C110.278 128.025 110.55 128.259 110.794 128.533L119.837 138.695C120.368 139.292 120.693 140.002 120.817 140.736L120.991 141.538L121.236 144.615V145.534H113.577V143.994L105.004 134.359H93.0745V160C93.0745 168.497 86.1972 175.385 77.7135 175.385H46.9916C38.508 175.385 31.6306 168.497 31.6306 160V135.385H16.1468C15.9197 135.401 15.6914 135.397 15.4649 135.373C14.5715 135.3 13.7707 134.9 13.1827 134.292L2.21124 123.718C1.82179 123.343 1.53759 122.906 1.35854 122.44L0.908714 120.513V116.923H8.07716V119.269L17.3493 128.205H31.6642C32.1912 120.187 38.8521 113.846 46.9916 113.846H50.1721C50.1007 113.175 50.0638 112.49 50.0638 111.795C50.0638 111.099 50.1007 110.415 50.1721 109.744H44.4314C40.3617 109.744 37.0313 106.573 36.7678 102.564H36.751C22.6116 102.564 11.1494 91.0842 11.1494 76.9231V25.641ZM36.751 5.12821H87.9542C99.2657 5.12821 108.435 14.3121 108.435 25.641V76.9231C108.435 88.252 99.2657 97.4359 87.9542 97.4359H36.751C25.4395 97.4359 16.2697 88.252 16.2697 76.9231V25.641C16.2697 14.3121 25.4395 5.12821 36.751 5.12821ZM36.751 160C36.751 165.664 41.3359 170.256 46.9916 170.256H77.7135C83.3693 170.256 87.9542 165.664 87.9542 160V129.231C87.9542 123.566 83.3693 118.974 77.7135 118.974H46.9916C41.3359 118.974 36.751 123.566 36.751 129.231V160ZM53.2651 113.846H71.4401C71.5248 113.181 71.5692 112.496 71.5692 111.795C71.5692 111.094 71.5248 110.409 71.4401 109.744H53.2651C53.1804 110.409 53.136 111.094 53.136 111.795C53.136 112.496 53.1804 113.181 53.2651 113.846ZM80.2737 106.667H44.4314C42.0594 106.667 40.106 104.872 39.8513 102.564H84.8539C84.5992 104.872 82.6457 106.667 80.2737 106.667Z" />
<path fill-rule="evenodd" clip-rule="evenodd" d="M45.9675 177.436L51.5999 189.744L57.0314 190.769L62.3526 200L67.6738 190.769L72.5932 189.744L78.7376 177.436H45.9675ZM71.4562 187.752L74.254 180.513H50.4511L53.249 187.752L58.9724 190.769H58.974L62.3526 195.897L65.7311 190.769H65.7258L71.4562 187.752Z" />
<path fill-rule="evenodd" clip-rule="evenodd" d="M0 112.415C-1.90735e-05 111.745 0.541512 111.203 1.20954 111.203L7.72454 111.203C8.39257 111.203 8.93414 111.745 8.93415 112.414L8.93422 114.837C8.93424 115.506 8.39271 116.049 7.72468 116.049L1.20968 116.049C0.541649 116.049 8.7738e-05 115.506 6.86646e-05 114.837L0 112.415ZM2.78963 112.414L4.09663 112.414L4.07885 114.837L2.77185 114.837L2.78963 112.414ZM4.68365 114.837L4.70143 112.414L6.00843 112.414L5.99065 114.837L4.68365 114.837ZM6.59546 114.837L7.72465 114.837L7.72458 112.414L6.61324 112.414L6.59546 114.837ZM2.18483 112.414L1.20958 112.414L1.20964 114.837L2.16705 114.837L2.18483 112.414Z" />
<path fill-rule="evenodd" clip-rule="evenodd" d="M113.954 146.178C113.258 146.178 112.694 146.743 112.694 147.44L112.694 149.964C112.695 150.66 113.259 151.225 113.954 151.225L120.74 151.225C121.436 151.225 122 150.66 122 149.963L122 147.44C122 146.743 121.436 146.178 120.74 146.178L113.954 146.178ZM116.961 147.44L115.6 147.44L115.581 149.963L116.943 149.963L116.961 147.44ZM117.591 147.44L117.573 149.963L118.934 149.963L118.953 147.44L117.591 147.44ZM120.74 149.963L119.564 149.963L119.583 147.44L120.74 147.44L120.74 149.963ZM113.954 147.44L114.97 147.44L114.952 149.963L113.954 149.964L113.954 147.44Z" />
<path d="M67.9209 141.16C68.1095 140.972 67.8316 140.694 67.643 140.883L60.2281 148.286C60.0395 148.464 60.3274 148.742 60.506 148.563L67.9209 141.16Z" />
<path d="M67.0176 140.258C67.2062 140.07 66.9283 139.793 66.7397 139.981L59.3248 147.384C59.1362 147.562 59.4241 147.84 59.6028 147.661L67.0176 140.258Z" />
<path d="M66.1143 139.357C66.3029 139.168 66.025 138.891 65.8364 139.079L58.4215 146.472C58.2329 146.66 58.5208 146.938 58.6995 146.76L66.1143 139.357Z" />
<path fill-rule="evenodd" clip-rule="evenodd" d="M55.2749 152.22L59.9998 150.436L70.2436 140.219C70.7201 139.743 70.9583 139.119 70.9583 138.484C70.9583 136.294 68.2981 135.234 66.7794 136.76L56.5455 146.978C56.4873 147.036 55.9482 148.538 55.454 149.914C55.1051 150.886 54.7786 151.796 54.6595 152.091C54.6297 152.171 54.6496 152.26 54.7091 152.319C54.7091 152.319 54.7132 152.322 54.72 152.328C54.8564 152.438 56.2728 153.583 58.7888 152.488C59.0623 152.369 59.318 152.254 59.5592 152.146C61.1301 151.44 62.0846 151.012 63.3152 151.596C63.8076 151.829 64.127 152.11 64.3844 152.337C64.8379 152.737 65.0994 152.967 65.7769 152.468C65.9853 152.309 65.7471 151.992 65.5386 152.151C65.1178 152.466 64.9517 152.317 64.6086 152.01C64.369 151.796 64.0431 151.504 63.4839 151.239C62.1391 150.597 61.3754 150.929 59.3186 151.823L59.2951 151.834L58.63 152.131C56.9028 152.884 55.7712 152.498 55.2749 152.22ZM69.8665 140.03L66.968 137.127L67.0573 137.038C68.3378 135.769 70.5613 136.651 70.5613 138.484C70.5613 139.119 70.3231 139.575 69.8665 140.03ZM66.6901 137.414L69.5885 140.308L69.3304 140.566L66.432 137.672L66.6901 137.414ZM66.1441 137.949L69.0525 140.843L59.9998 149.881C59.9601 149.683 59.8807 149.505 59.7517 149.376C59.524 149.149 59.1512 149.096 58.8128 149.048C58.5316 149.008 58.2742 148.971 58.1436 148.841C57.9956 148.689 57.967 148.438 57.9362 148.167C57.8823 147.692 57.8213 147.154 57.1014 146.978L66.1441 137.949ZM56.883 151.199L55.801 150.129L56.8135 147.334C56.9723 147.354 57.2105 147.404 57.3197 147.503C57.461 147.644 57.4977 147.906 57.5373 148.19C57.584 148.524 57.6348 148.888 57.8657 149.118C58.0884 149.346 58.4599 149.399 58.7994 149.447C59.0801 149.487 59.3389 149.523 59.4737 149.653C59.573 149.752 59.6226 149.951 59.6524 150.169L56.883 151.199ZM55.6521 150.535L56.4661 151.348L55.1757 151.834L55.6521 150.535Z" />
<path fill-rule="evenodd" clip-rule="evenodd" d="M77 144.5C77 152.508 70.5081 159 62.5 159C54.4919 159 48 152.508 48 144.5C48 136.492 54.4919 130 62.5 130C70.5081 130 77 136.492 77 144.5ZM75.7917 144.5C75.7917 151.841 69.8408 157.792 62.5 157.792C55.1592 157.792 49.2083 151.841 49.2083 144.5C49.2083 137.159 55.1592 131.208 62.5 131.208C69.8408 131.208 75.7917 137.159 75.7917 144.5Z" />
</svg>
