<svg viewBox="0 0 122 200" >
<path fill-rule="evenodd" clip-rule="evenodd" d="M52.1119 38.9744C52.1119 44.6388 47.527 49.2308 41.8713 49.2308C36.2155 49.2308 31.6306 44.6388 31.6306 38.9744C31.6306 33.3099 36.2155 28.718 41.8713 28.718C47.527 28.718 52.1119 33.3099 52.1119 38.9744ZM49.0397 38.9744C49.0397 42.9395 45.8303 46.1539 41.8713 46.1539C37.9123 46.1539 34.7028 42.9395 34.7028 38.9744C34.7028 35.0092 37.9123 31.7949 41.8713 31.7949C45.8303 31.7949 49.0397 35.0092 49.0397 38.9744Z" />
<path fill-rule="evenodd" clip-rule="evenodd" d="M82.8339 49.2308C88.4896 49.2308 93.0745 44.6388 93.0745 38.9744C93.0745 33.3099 88.4896 28.718 82.8339 28.718C77.1781 28.718 72.5932 33.3099 72.5932 38.9744C72.5932 44.6388 77.1781 49.2308 82.8339 49.2308ZM82.8339 46.1539C86.7929 46.1539 90.0023 42.9395 90.0023 38.9744C90.0023 35.0092 86.7929 31.7949 82.8339 31.7949C78.8748 31.7949 75.6654 35.0092 75.6654 38.9744C75.6654 42.9395 78.8748 46.1539 82.8339 46.1539Z" />
<path d="M49.0397 64.6154C51.6157 70.0805 56.017 73.8462 62.293 73.8462C68.569 73.8462 73.0894 70.0805 75.6654 64.6154L74.6413 63.5897L73.0842 64.6154C70.7943 68.3365 66.7829 70.7692 62.293 70.7692C57.803 70.7692 53.7916 68.3365 51.5017 64.6154L50.0638 63.5897L49.0397 64.6154Z" />
<path d="M61.3792 144.759C61.1253 145.025 60.9984 145.362 60.9984 145.77V147.557C60.9984 147.964 61.1253 148.309 61.3792 148.591C61.633 148.858 61.954 148.991 62.3422 148.991C62.7305 148.991 63.0515 148.858 63.3053 148.591C63.5592 148.309 63.6861 147.964 63.6861 147.557V146.687C63.6861 146.669 63.6886 146.653 63.6936 146.64C63.6948 146.637 63.6962 146.634 63.6978 146.631C63.6993 146.628 63.701 146.626 63.7028 146.623C63.7045 146.621 63.7065 146.618 63.7085 146.616L63.7981 146.569C64.4401 146.459 65.03 146.279 65.5675 146.028C66.12 145.762 66.5978 145.417 67.0009 144.994C67.419 144.555 67.7401 144.038 67.964 143.442C68.188 142.831 68.3 142.133 68.3 141.349C68.3 140.299 68.0536 139.358 67.5609 138.528C67.0681 137.697 66.4037 137.038 65.5675 136.552C64.7463 136.051 63.8205 135.8 62.7902 135.8C61.9689 135.8 61.1925 135.965 60.4608 136.294C59.7441 136.607 59.117 137.054 58.5795 137.634C58.2659 137.963 58.124 138.324 58.1539 138.716C58.1838 139.108 58.3779 139.445 58.7362 139.727C59.0797 139.993 59.4156 140.079 59.7441 139.985C60.0876 139.876 60.3787 139.711 60.6176 139.492C60.9163 139.225 61.2448 139.014 61.6031 138.857C61.9764 138.7 62.3721 138.622 62.7902 138.622C63.3277 138.622 63.8055 138.739 64.2236 138.974C64.6567 139.209 64.9926 139.531 65.2315 139.938C65.4854 140.346 65.6123 140.816 65.6123 141.349C65.6123 142.07 65.463 142.65 65.1643 143.089C64.8806 143.528 64.4924 143.849 63.9997 144.053C63.5069 144.241 62.9544 144.335 62.3422 144.335C61.954 144.335 61.633 144.476 61.3792 144.759Z" />
<path d="M61.2224 152.847C61.4613 153.082 61.7972 153.2 62.2303 153.2H62.5214C62.9544 153.2 63.2829 153.082 63.5069 152.847C63.7458 152.596 63.8653 152.244 63.8653 151.789V151.389C63.8653 150.935 63.7458 150.59 63.5069 150.355C63.2829 150.104 62.9544 149.979 62.5214 149.979H62.2303C61.7972 149.979 61.4613 150.104 61.2224 150.355C60.9984 150.59 60.8864 150.935 60.8864 151.389V151.789C60.8864 152.244 60.9984 152.596 61.2224 152.847Z" />
<path fill-rule="evenodd" clip-rule="evenodd" d="M62.5 159C70.5081 159 77 152.508 77 144.5C77 136.492 70.5081 130 62.5 130C54.4919 130 48 136.492 48 144.5C48 152.508 54.4919 159 62.5 159ZM62.5 157.55C69.7073 157.55 75.55 151.707 75.55 144.5C75.55 137.293 69.7073 131.45 62.5 131.45C55.2927 131.45 49.45 137.293 49.45 144.5C49.45 151.707 55.2927 157.55 62.5 157.55Z" />
<path fill-rule="evenodd" clip-rule="evenodd" d="M11.1494 25.641C11.1494 11.4799 22.6116 0 36.751 0H87.9542C102.094 0 113.556 11.4799 113.556 25.641V76.9231C113.556 91.0842 102.094 102.564 87.9542 102.564H87.9374C87.6739 106.573 84.3435 109.744 80.2737 109.744H74.5331C74.6045 110.415 74.6413 111.099 74.6413 111.795C74.6413 112.49 74.6045 113.175 74.5331 113.846H77.7135C85.5027 113.846 91.9379 119.653 92.9392 127.179H107.329C107.657 127.147 107.987 127.154 108.312 127.2C108.931 127.267 109.502 127.492 109.985 127.833C110.278 128.025 110.55 128.259 110.794 128.533L119.837 138.695C120.368 139.292 120.693 140.002 120.817 140.736L120.991 141.538L121.236 144.615V145.534H113.577V143.994L105.004 134.359H93.0745V160C93.0745 168.497 86.1972 175.385 77.7135 175.385H46.9916C38.508 175.385 31.6306 168.497 31.6306 160V135.385H16.1468C15.9197 135.401 15.6914 135.397 15.4649 135.373C14.5715 135.3 13.7707 134.9 13.1827 134.292L2.21124 123.718C1.82179 123.343 1.53759 122.906 1.35854 122.44L0.908714 120.513V116.923H8.07716V119.269L17.3493 128.205H31.6642C32.1912 120.187 38.8521 113.846 46.9916 113.846H50.1721C50.1007 113.175 50.0638 112.49 50.0638 111.795C50.0638 111.099 50.1007 110.415 50.1721 109.744H44.4314C40.3617 109.744 37.0313 106.573 36.7678 102.564H36.751C22.6116 102.564 11.1494 91.0842 11.1494 76.9231V25.641ZM36.751 5.12821H87.9542C99.2657 5.12821 108.435 14.3121 108.435 25.641V76.9231C108.435 88.252 99.2657 97.4359 87.9542 97.4359H36.751C25.4395 97.4359 16.2697 88.252 16.2697 76.9231V25.641C16.2697 14.3121 25.4395 5.12821 36.751 5.12821ZM36.751 160C36.751 165.664 41.3359 170.256 46.9916 170.256H77.7135C83.3693 170.256 87.9542 165.664 87.9542 160V129.231C87.9542 123.566 83.3693 118.974 77.7135 118.974H46.9916C41.3359 118.974 36.751 123.566 36.751 129.231V160ZM53.2651 113.846H71.4401C71.5248 113.181 71.5692 112.496 71.5692 111.795C71.5692 111.094 71.5248 110.409 71.4401 109.744H53.2651C53.1804 110.409 53.136 111.094 53.136 111.795C53.136 112.496 53.1804 113.181 53.2651 113.846ZM80.2737 106.667H44.4314C42.0594 106.667 40.106 104.872 39.8513 102.564H84.8539C84.5992 104.872 82.6457 106.667 80.2737 106.667Z" />
<path fill-rule="evenodd" clip-rule="evenodd" d="M51.5999 189.744L45.9675 177.436H78.7376L72.5932 189.744L67.6738 190.769L62.3526 200L57.0314 190.769L51.5999 189.744ZM74.254 180.513L71.4562 187.752L65.7258 190.769H65.7311L62.3526 195.897L58.974 190.769H58.9724L53.249 187.752L50.4511 180.513H74.254Z" />
<path fill-rule="evenodd" clip-rule="evenodd" d="M0 112.415C-1.90735e-05 111.745 0.541512 111.203 1.20954 111.203L7.72454 111.203C8.39257 111.203 8.93414 111.745 8.93415 112.414L8.93422 114.837C8.93424 115.506 8.39271 116.049 7.72468 116.049L1.20968 116.049C0.541649 116.049 8.7738e-05 115.506 6.86646e-05 114.837L0 112.415ZM2.78963 112.414L4.09663 112.414L4.07885 114.837L2.77185 114.837L2.78963 112.414ZM4.68365 114.837L4.70143 112.414L6.00843 112.414L5.99065 114.837L4.68365 114.837ZM6.59546 114.837L7.72465 114.837L7.72458 112.414L6.61324 112.414L6.59546 114.837ZM2.18483 112.414L1.20958 112.414L1.20964 114.837L2.16705 114.837L2.18483 112.414Z" />
<path fill-rule="evenodd" clip-rule="evenodd" d="M112.694 147.44C112.694 146.743 113.258 146.178 113.954 146.178L120.74 146.178C121.436 146.178 122 146.743 122 147.44L122 149.963C122 150.66 121.436 151.225 120.74 151.225L113.954 151.225C113.259 151.225 112.695 150.66 112.694 149.964L112.694 147.44ZM115.6 147.44L116.961 147.44L116.943 149.963L115.581 149.963L115.6 147.44ZM117.573 149.963L117.591 147.44L118.953 147.44L118.934 149.963L117.573 149.963ZM119.564 149.963L120.74 149.963L120.74 147.44L119.583 147.44L119.564 149.963ZM114.97 147.44L113.954 147.44L113.954 149.964L114.952 149.963L114.97 147.44Z" />
</svg>
