<svg viewBox="0 0 240 110" >
<path fill-rule="evenodd" clip-rule="evenodd" d="M185.237 102.651L209.718 96.4216C223.196 92.992 231.245 79.3361 227.634 66.0264L214.709 18.3847C211.123 5.16497 197.391 -2.68714 184.039 0.846525L135.685 13.6431C122.333 17.1767 114.416 30.758 118.003 43.9778L130.926 91.6149C134.538 104.926 148.424 112.778 161.833 109.089L185.237 102.651ZM160.487 104.315L183.938 97.864L208.466 91.6222C219.248 88.8785 225.687 77.9538 222.799 67.3061L209.874 19.6644C207.005 9.08859 196.019 2.80688 185.337 5.63382L136.984 18.4304C126.302 21.2573 119.969 32.1224 122.838 42.6982L135.762 90.3352C138.651 100.984 149.76 107.266 160.487 104.315ZM168.752 36.1914C170.258 41.7436 174.293 45.4999 177.765 44.5811C181.236 43.6624 182.83 38.4165 181.323 32.8643C179.817 27.312 175.782 23.5557 172.31 24.4745C168.838 25.3932 167.245 30.6391 168.752 36.1914ZM174.578 40.6482C175.78 41.7669 176.625 41.8043 176.986 41.7087C177.347 41.6132 178.059 41.1636 178.534 39.6012C178.993 38.0902 179.054 35.961 178.422 33.6321C177.79 31.3031 176.659 29.4894 175.497 28.4075C174.295 27.2887 173.45 27.2513 173.089 27.3469C172.728 27.4424 172.016 27.892 171.541 29.4544C171.082 30.9654 171.021 33.0946 171.653 35.4236C172.285 37.7526 173.415 39.5663 174.578 40.6482ZM187.895 81.922C184.424 82.8408 180.388 79.0845 178.882 73.5323C177.376 67.98 178.969 62.7341 182.44 61.8154C185.912 60.8966 189.947 64.6529 191.454 70.2052C192.96 75.7574 191.367 81.0033 187.895 81.922ZM187.116 79.0496C186.755 79.1452 185.91 79.1078 184.708 77.9891C183.546 76.9071 182.415 75.0934 181.783 72.7645C181.151 70.4355 181.212 68.3063 181.671 66.7953C182.146 65.2329 182.859 64.7833 183.22 64.6878C183.581 64.5922 184.426 64.6296 185.627 65.7483C186.79 66.8303 187.921 68.644 188.552 70.9729C189.184 73.3019 189.123 75.4311 188.664 76.9421C188.19 78.5045 187.477 78.9541 187.116 79.0496ZM153.984 73.4511C153.774 72.7422 154 71.9448 154.61 71.2329C155.509 70.0837 155.835 68.8266 155.528 67.6959C155.222 66.565 154.303 65.6376 152.943 65.086C152.058 64.7669 151.456 64.1912 151.263 63.4782C151.07 62.7652 151.299 61.9696 151.904 61.2562C152.802 60.107 153.129 58.8499 152.822 57.7191C152.515 56.5883 151.596 55.6608 150.236 55.1093C149.348 54.7921 148.744 54.2166 148.551 53.5029C148.357 52.7893 148.589 51.9926 149.197 51.2795C150.099 50.1489 150.432 48.9066 150.132 47.7894C150.063 47.5354 149.844 47.3324 149.523 47.2248C149.202 47.1172 148.806 47.114 148.421 47.2158C148.037 47.3176 147.695 47.5161 147.472 47.7677C147.248 48.0192 147.162 48.3032 147.231 48.5571C147.44 49.266 147.215 50.0635 146.604 50.7753C145.691 51.9193 145.362 53.1771 145.68 54.3037C145.972 55.4408 146.895 56.3712 148.269 56.9126C149.157 57.2298 149.761 57.8053 149.955 58.519C150.148 59.2327 149.917 60.0293 149.308 60.7425C148.41 61.8917 148.083 63.1487 148.39 64.2795C148.697 65.4103 149.616 66.3378 150.976 66.8893C151.861 67.2085 152.462 67.7842 152.656 68.4972C152.849 69.2101 152.62 70.0058 152.015 70.7192C151.111 71.8533 150.78 73.0991 151.083 74.2188C151.152 74.4728 151.371 74.6758 151.692 74.7834C152.012 74.891 152.409 74.8942 152.793 74.7924C153.178 74.6906 153.52 74.4921 153.743 74.2405C153.966 73.989 154.053 73.705 153.984 73.4511ZM216.613 102.446L208.382 109.68L203.617 104.39L213.587 95.6285C213.81 95.3894 214.062 95.1776 214.336 94.9979C214.843 94.6405 215.419 94.4303 216.007 94.3639C216.353 94.3137 216.712 94.3067 217.076 94.3483L230.585 95.8913C231.379 95.9819 232.092 96.2906 232.672 96.7498L233.335 97.227L235.561 99.3326L236.17 100.009L230.442 105.044L229.42 103.909L216.613 102.446ZM231.152 105.271C230.631 105.728 230.584 106.515 231.047 107.028L232.722 108.887C233.184 109.401 233.981 109.446 234.501 108.989L239.577 104.528C240.097 104.071 240.144 103.284 239.682 102.77L238.007 100.911C237.544 100.398 236.747 100.353 236.227 100.81L231.152 105.271ZM234.238 104.223L233.22 105.118L234.881 106.99L235.899 106.095L234.238 104.223ZM234.709 103.809L236.37 105.681L237.389 104.786L235.727 102.914L234.709 103.809ZM238.739 103.599L237.86 104.372L236.199 102.5L237.064 101.739L238.739 103.599ZM231.989 106.2L232.749 105.532L234.41 107.404L233.664 108.059L231.989 106.2ZM30.8288 93.8136L23.3902 101.84L10.4992 101.679L9.36486 100.653L4.18754 106.24L4.8639 106.851L7.29586 108.721L8.00467 109.129C8.62927 109.527 9.37136 109.762 10.17 109.772L23.7679 109.942C24.1344 109.947 24.4904 109.904 24.8297 109.819C25.4076 109.694 25.9592 109.426 26.4264 109.02C26.6803 108.813 26.9086 108.577 27.1061 108.317L36.1166 98.5939L30.8288 93.8136ZM8.55771 98.74C9.07093 99.204 9.10574 99.9915 8.63544 100.499L4.0485 105.449C3.57815 105.956 2.78085 105.992 2.26754 105.528L0.408893 103.848C-0.104328 103.384 -0.139139 102.596 0.331163 102.088L4.9181 97.1387C5.38845 96.6311 6.18575 96.5958 6.69906 97.0598L8.55771 98.74ZM6.59364 100.859L5.67346 101.852L3.82736 100.159L4.74754 99.1657L6.59364 100.859ZM3.40153 100.618L5.24763 102.312L4.32745 103.305L2.4813 101.611L3.40153 100.618ZM2.05552 102.071L1.26055 102.929L3.1192 104.609L3.90162 103.764L2.05552 102.071ZM7.01943 100.4L7.70605 99.659L5.8474 97.9788L5.17332 98.7062L7.01943 100.4ZM54.2526 48.8345C47.9059 49.7266 42.8067 54.4514 41.4264 60.5643V97.6523C42.9619 104.452 49.0988 109.534 56.4357 109.534H87.1937C95.1731 109.534 101.733 103.523 102.498 95.8286V61.8669H102.437C101.53 55.1313 96.1675 49.789 89.3768 48.8345H54.2526ZM46.1829 94.3212C46.1829 99.9224 50.7733 104.463 56.4357 104.463H87.1937C92.8562 104.463 97.4465 99.9224 97.4465 94.3212V63.8953C97.4465 58.294 92.8562 53.7533 87.1937 53.7533H56.4357C50.7733 53.7533 46.1829 58.294 46.1829 63.8953V94.3212ZM71.9623 93.3323C79.9799 93.3323 86.4794 86.9129 86.4794 78.9941C86.4794 71.0754 79.9799 64.6559 71.9623 64.6559C63.9448 64.6559 57.4452 71.0754 57.4452 78.9941C57.4452 86.9129 63.9448 93.3323 71.9623 93.3323ZM71.9623 92.1375C79.3118 92.1375 85.2696 86.253 85.2696 78.9941C85.2696 71.7353 79.3118 65.8508 71.9623 65.8508C64.6129 65.8508 58.655 71.7353 58.655 78.9941C58.655 86.253 64.6129 92.1375 71.9623 92.1375ZM69.4592 84.8642L64.7288 86.6281C65.2256 86.9025 66.3586 87.2847 68.0878 86.5399L68.7536 86.2459L68.7772 86.2358L68.7773 86.2357C70.8365 85.3516 71.601 85.0234 72.9474 85.6579C73.5072 85.9199 73.8335 86.2083 74.0734 86.4204C74.4169 86.724 74.5832 86.8711 75.0045 86.5595C75.2132 86.4027 75.4518 86.7163 75.243 86.8731C74.5647 87.3669 74.303 87.1391 73.8489 86.7439L73.8488 86.7439C73.5911 86.5195 73.2715 86.2413 72.7785 86.0107C71.5465 85.4331 70.5908 85.8569 69.018 86.5546C68.7766 86.6617 68.5205 86.7753 68.2468 86.8927C65.7283 87.9757 64.3103 86.8439 64.1732 86.7345L64.1731 86.7344L64.1657 86.7286L64.1623 86.7261C64.1027 86.6673 64.0828 86.5791 64.1126 86.5007C64.1935 86.3026 64.3701 85.8248 64.5843 85.2377C64.6858 84.9596 64.7958 84.6571 64.9081 84.3481C65.4028 82.9867 65.9425 81.5015 66.0008 81.4441L76.2468 71.3406C77.7672 69.8314 80.4306 70.88 80.4306 73.0458C80.4306 73.6729 80.1921 74.2902 79.7151 74.7607L69.4592 84.8642ZM76.4356 71.7032L79.3374 74.5745C79.7946 74.1237 80.0331 73.6729 80.0331 73.0458C80.0331 71.2328 77.807 70.3606 76.5251 71.615L76.4356 71.7032ZM79.0592 74.8489L76.1573 71.9874L75.8989 72.2421L78.8008 75.1036L79.0592 74.8489ZM78.5225 75.3781L75.6108 72.5166L66.5573 81.4441C67.2781 81.6186 67.3392 82.1502 67.3932 82.6198C67.4135 82.7972 67.4329 82.9656 67.4864 83.1027C67.5139 83.1733 67.5504 83.2355 67.6008 83.2864C67.7316 83.4154 67.9893 83.4515 68.2708 83.491C68.6096 83.5385 68.9828 83.5908 69.2107 83.8156C69.3399 83.943 69.4194 84.1194 69.4592 84.3154L78.5225 75.3781ZM65.2554 84.5603L66.3387 85.6187L69.1114 84.5996C69.0815 84.384 69.0319 84.188 68.9325 84.09C68.7975 83.9613 68.5385 83.9251 68.2575 83.8857L68.2573 83.8857C67.9174 83.8381 67.5456 83.7861 67.3225 83.5608C67.0914 83.3329 67.0405 82.9731 66.9938 82.6428L66.9938 82.6422V82.6422C66.954 82.362 66.9173 82.1029 66.7759 81.9634C66.6666 81.8655 66.4281 81.8165 66.2691 81.7968L65.2554 84.5603ZM65.9213 85.7657L65.1064 84.9622L64.6293 86.2459L65.9213 85.7657ZM75.3027 73.6337C75.4915 73.4475 75.7698 73.7219 75.5809 73.9081L68.1573 81.2284C67.9784 81.4049 67.6903 81.1305 67.8791 80.9443L75.3027 73.6337ZM76.2071 74.5255C76.3959 74.3393 76.674 74.6137 76.4852 74.7999L69.0617 82.1202C68.8828 82.2966 68.5946 82.0223 68.7834 81.8459L76.2071 74.5255ZM77.3896 75.6917C77.5784 75.5054 77.3001 75.2311 77.1113 75.4172L69.6877 82.7376C69.4989 82.914 69.7871 83.1884 69.966 83.012L77.3896 75.6917Z" />
</svg>
