<svg width="28" height="28" viewBox="0 0 50 50" xmlns="http://www.w3.org/2000/svg">
<path d="M48.9582 26.8641C48.69 26.8645 48.4321 26.7551 48.2384 26.5589L25.0002 3.04953L1.76204 26.5589C1.56245 26.761 1.29513 26.8709 1.01891 26.8645C0.742689 26.8581 0.480187 26.7359 0.289151 26.5247C0.0981155 26.3136 -0.00580594 26.0309 0.000250635 25.7388C0.00630647 25.4466 0.121843 25.169 0.321442 24.9669L25.0002 0L49.678 24.9658C49.8284 25.1178 49.9323 25.314 49.9764 25.5291C50.0204 25.7441 50.0026 25.9682 49.9252 26.1725C49.8477 26.3767 49.7142 26.5517 49.5419 26.675C49.3695 26.7982 49.1662 26.8641 48.9582 26.8641Z" />
<path d="M40.625 13.6436C40.3487 13.6436 40.0838 13.5275 39.8884 13.3209C39.6931 13.1143 39.5833 12.834 39.5833 12.5419V5.9316H33.3334C33.0572 5.9316 32.7922 5.81553 32.5969 5.60892C32.4015 5.40231 32.2918 5.12208 32.2918 4.82989C32.2918 4.5377 32.4015 4.25748 32.5969 4.05087C32.7922 3.84426 33.0572 3.72818 33.3334 3.72818H41.6666V12.5419C41.6666 12.834 41.5569 13.1143 41.3616 13.3209C41.1662 13.5275 40.9012 13.6436 40.625 13.6436Z" />
<path d="M29.1668 50H43.75V27.9658C43.75 27.6736 43.6402 27.3934 43.4449 27.1868C43.2495 26.9802 42.9846 26.8641 42.7083 26.8641C42.432 26.8641 42.1671 26.9802 41.9717 27.1868C41.7764 27.3934 41.6667 27.6736 41.6667 27.9658V47.7966H31.2501V33.4744H18.7503V47.7966H8.33383V26.8641C8.33383 26.5719 8.22408 26.2917 8.02874 26.0851C7.83339 25.8785 7.56844 25.7624 7.29218 25.7624C7.01592 25.7624 6.75097 25.8785 6.55562 26.0851C6.36027 26.2917 6.25053 26.5719 6.25053 26.8641V50H20.8336V35.6778H29.1668V50Z" />
<path fill-rule="evenodd" clip-rule="evenodd" d="M25 7.8125L35.9375 18.75V29.6875H14.0625V18.75L25 7.8125ZM24.2188 10.8035L15.625 19.3972V19.5312H24.2188V10.8035ZM24.2188 21.0937H15.625V28.125H24.2188V21.0937ZM25.7813 21.0937H34.375V28.125H25.7813V21.0937ZM34.375 19.5312V19.3972L25.7813 10.8035V19.5312H34.375Z" />
</svg>
