<svg width="12" height="28" viewBox="0 0 20 50" xmlns="http://www.w3.org/2000/svg">
<path d="M6.68717 8.79167C7.31819 9.28625 8.39993 9.53355 9.9324 9.53355C11.4649 9.53355 12.5691 9.30874 13.2452 8.85911C13.9213 8.36452 14.2594 7.46526 14.2594 6.16134V4.87991C14.2594 4.3197 14.6533 3.40585 15.0349 2.52043C15.5109 1.41606 15.9679 0.355905 15.6177 0.0813999C15.285 -0.179358 14.1801 0.231292 12.9785 0.677871C11.9011 1.07834 10.7458 1.5077 10 1.5077C9.34546 1.5077 8.25124 1.11209 7.1838 0.726171C5.89912 0.261703 4.65325 -0.188736 4.25936 0.0813999C3.88974 0.327214 4.367 1.34874 4.87564 2.43741C5.29736 3.34005 5.74065 4.28885 5.74065 4.87991V6.16134C5.74065 7.4203 6.05615 8.29707 6.68717 8.79167Z" />
<path d="M17.4483 47.409C15.8365 46.9727 14.0565 46.4908 14.0565 45.8859V18.0315C14.0565 16.8625 13.6734 15.8958 12.9072 15.1314C12.141 14.3221 11.1719 13.9174 10 13.9174C8.82812 13.9174 7.85906 14.3221 7.09282 15.1314C6.32659 15.8958 5.94347 16.8625 5.94347 18.0315V45.8859C5.94347 46.4908 4.16347 46.9727 2.55169 47.409C1.04855 47.8159 -0.308269 48.1832 0.0614877 48.5738C0.827722 49.3381 8.82812 50 10 50C11.1719 50 19.1723 49.3381 19.9385 48.5738C20.3083 48.1832 18.9514 47.8159 17.4483 47.409Z" />
</svg>
