<svg width="60" height="60" viewBox="0 0 60 60" xmlns="http://www.w3.org/2000/svg">
<path fill-rule="evenodd" clip-rule="evenodd" d="M30 60C46.5684 60 60 46.5684 60 30C60 13.4315 46.5684 0 30 0C13.4315 0 0 13.4315 0 30C0 46.5684 13.4315 60 30 60ZM30 57C44.9118 57 57 44.9118 57 30C57 23.6602 51.279 22.6028 45.0588 21.4531C40.1238 20.541 34.8747 19.5708 31.9194 15.8581C25.7341 19.1818 20.8172 24.8658 18.6355 32.1216C16.0933 40.5765 17.8264 49.2993 22.5867 55.9695C24.9422 56.6406 27.4291 57 30 57ZM30 3C29.169 7.71774 29.4973 11.1354 30.597 13.652C23.9818 17.3099 18.7351 23.4555 16.3865 31.2663C13.9358 39.4173 15.1177 47.7957 18.9977 54.6639C17.5732 54.0276 16.214 53.2713 14.9328 52.4082L15.5175 50.421L13.4974 50.91L14.9096 52.3926C7.7244 47.541 3 39.3222 3 30C3 15.0883 15.0883 3 30 3ZM30.7071 55.5243C44.3835 55.2735 55.2753 43.9845 55.0401 30.2958C54.9399 24.4717 49.671 23.5906 43.9422 22.6326C39.3972 21.8725 34.5627 21.064 31.791 17.7C26.1649 20.8508 21.7405 26.1499 19.852 32.8497C17.6515 40.6569 19.3802 48.6426 23.8558 54.6951C26.02 55.272 28.299 55.563 30.6489 55.5252L30.7071 55.5243ZM31.8756 54.1437C44.5218 53.4795 54.2451 42.7446 53.5983 30.1539C53.3232 24.7969 48.4203 24.1529 43.0899 23.4528C38.8605 22.8974 34.362 22.3066 31.6923 19.2984C26.5853 22.3765 22.6577 27.3937 21.1206 33.6198C19.3294 40.8747 21.1793 48.1695 25.5102 53.598C27.5308 54.0603 29.6485 54.2556 31.8216 54.1467L31.8756 54.1437ZM51.2334 30.5136C52.0992 41.8023 43.7292 51.651 32.5341 52.5228L32.4864 52.5264C30.5625 52.6716 28.6806 52.5423 26.8788 52.1712C22.9135 47.3925 21.1042 40.884 22.5235 34.3323C23.7415 28.7098 27.1066 24.1203 31.5621 21.2458C33.9987 23.8881 38.0004 24.3205 41.7624 24.727C46.5039 25.2394 50.865 25.7107 51.2334 30.5136ZM50.3301 30.4179C51.5025 40.9737 43.929 50.4792 33.4104 51.6597L33.3654 51.6648C31.5576 51.8634 29.7809 51.8034 28.0717 51.5139C24.1853 47.1621 22.2751 41.1189 23.4051 34.9299C24.3748 29.619 27.3998 25.2068 31.5063 22.3672C33.885 24.7654 37.6683 25.041 41.2251 25.3001C45.708 25.6266 49.8312 25.9269 50.3301 30.4179ZM47.9025 30.9666C49.2903 39.8877 43.2444 48.2364 34.3959 49.6233L34.3584 49.6293C32.8374 49.8639 31.3329 49.8777 29.8772 49.6944C26.428 46.1409 24.5861 41.0787 25.309 35.7819C25.9293 31.2366 28.321 27.3791 31.686 24.8177C33.7872 26.7674 36.996 26.8631 40.0128 26.9531C43.815 27.0666 47.3121 27.171 47.9025 30.9666ZM47.0598 30.9297C48.741 39.1773 43.3668 47.2374 35.0544 48.9417L35.019 48.9489C33.5901 49.2384 32.1675 49.3215 30.783 49.2183C27.3735 46.068 25.4222 41.4372 25.8872 36.4686C26.2862 32.2044 28.3892 28.4991 31.4664 25.9558C33.5346 27.6745 36.5739 27.6143 39.4311 27.5577C43.0323 27.4864 46.3446 27.4208 47.0598 30.9297ZM44.1 31.7448C45.8703 37.7802 42.3876 44.1162 36.3195 45.9039L36.2937 45.9114C35.2506 46.2162 34.1988 46.3668 33.1638 46.3764C30.4317 44.2437 28.6891 40.9179 28.7203 37.1895C28.7472 33.99 30.0753 31.1001 32.2005 29.0147C33.8457 30.1653 36.0999 29.9308 38.2191 29.7104C40.89 29.4326 43.3467 29.177 44.1 31.7448ZM43.449 31.8696C45.2934 37.3869 42.2187 43.3881 36.5808 45.2799L36.5565 45.288C35.5872 45.6108 34.6053 45.7914 33.6345 45.8406C31.0065 43.9737 29.2707 40.9632 29.1866 37.5111C29.1145 34.5483 30.2724 31.8216 32.2029 29.808C33.7812 30.8085 35.8887 30.5034 37.8702 30.2166C40.3674 29.8549 42.6642 29.5223 43.449 31.8696ZM40.4151 33.5085C41.8128 36.573 40.446 40.1982 37.3623 41.6091L37.3491 41.6151C36.8187 41.8566 36.2721 42.0165 35.7234 42.1008C34.1118 41.1786 32.9343 39.5484 32.6679 37.5693C32.439 35.871 32.9241 34.2375 33.8937 32.9697C34.854 33.4539 36.0321 33.1575 37.14 32.8788C38.5362 32.5275 39.8202 32.2047 40.4151 33.5085ZM40.0242 33.6453C41.451 36.3579 40.3413 39.7491 37.5459 41.2236L37.5339 41.2299C37.053 41.4819 36.5538 41.6613 36.0492 41.7711C34.5168 41.0271 33.3561 39.6105 33.024 37.8204C32.739 36.2844 33.1179 34.764 33.9612 33.5481C34.8714 33.9321 35.9499 33.5904 36.9639 33.2691C38.2419 32.8638 39.4173 32.4915 40.0242 33.6453ZM37.7919 35.3613C38.4591 36.2688 38.2803 37.5342 37.3923 38.1888L37.3884 38.1915C37.2357 38.3037 37.0719 38.3904 36.9021 38.4528C36.3192 38.2554 35.8251 37.8 35.598 37.1736C35.4033 36.636 35.442 36.0741 35.6622 35.6001C36.0048 35.6967 36.3615 35.5257 36.6966 35.3646C37.1193 35.1618 37.5078 34.9752 37.7919 35.3613ZM37.632 35.4468C38.2767 36.2142 38.1783 37.3581 37.4124 38.0028L37.4091 38.0055C37.2774 38.1159 37.1346 38.2044 36.9849 38.2713C36.4515 38.1336 35.985 37.7592 35.7498 37.2138C35.5482 36.7458 35.5554 36.2406 35.73 35.802C36.0426 35.8656 36.3546 35.6889 36.648 35.5224C37.0176 35.313 37.3578 35.1201 37.632 35.4468ZM37.0635 36.8325C37.1547 36.7212 37.1136 36.5361 36.9711 36.4191C36.9105 36.3693 36.8655 36.4038 36.8163 36.441C36.7773 36.4707 36.7359 36.5022 36.6822 36.4953C36.6759 36.5676 36.7002 36.6489 36.756 36.7221C36.8211 36.8073 36.9153 36.8631 37.008 36.8799C37.0287 36.8676 37.0479 36.8517 37.0635 36.8325ZM28.6015 5.14911L27.4863 3.39516L29.5628 3.30633L28.6015 5.14911ZM27.4198 6.36651L29.1729 7.48293L29.2632 5.40642L27.4198 6.36651ZM26.7292 11.3177L27.0636 9.26631L28.6729 10.5816L26.7292 11.3177ZM24.5679 9.39969L25.9189 10.9791L26.6112 9.01929L24.5679 9.39969ZM21.2159 8.51178L21.8292 6.52584L23.2424 8.04993L21.2159 8.51178ZM21.5679 9.09969L22.9189 10.6791L23.6112 8.71929L21.5679 9.09969ZM19.526 6.25485L21.5407 5.74374L20.976 7.74405L19.526 6.25485ZM19.1679 9.69969L20.5189 11.2791L21.2112 9.31929L19.1679 9.69969ZM20.9415 11.8385L21.496 9.83535L22.9535 11.3172L20.9415 11.8385ZM23.6678 15.9142L23.8997 17.9797L25.5725 16.7462L23.6678 15.9142ZM21.1406 13.8254L21.9155 11.8968L23.1983 13.5322L21.1406 13.8254ZM16.1831 9.60546L14.6996 11.0611L16.702 11.6181L16.1831 9.60546ZM12.5079 9.99768L14.1006 8.66229L14.4608 10.7093L12.5079 9.99768ZM17.3775 11.4153L15.9208 12.8978L17.933 13.4181L17.3775 11.4153ZM12.212 12.275L11.9254 10.2164L13.8515 10.9975L12.212 12.275ZM13.925 11.6633L12.0686 12.598L13.8062 13.7384L13.925 11.6633ZM14.1982 11.166L16.0617 12.0866L14.3327 13.2401L14.1982 11.166ZM17.5673 13.7373L15.5859 13.1094L16.0328 15.1393L17.5673 13.7373ZM17.6131 15.1848L19.6846 15.015L18.7959 16.8939L17.6131 15.1848ZM14.4413 16.2062L13.1911 14.5458L12.3782 16.4587L14.4413 16.2062ZM19.3012 20.4738L21.3692 20.6823L20.1546 22.369L19.3012 20.4738ZM12.0306 16.2066L10.7921 14.5374L9.96579 16.4445L12.0306 16.2066ZM8.60874 14.2067L9.48372 16.0921L7.41351 15.9072L8.60874 14.2067ZM18.7696 24.7469L19.775 22.9278L17.6969 22.9667L18.7696 24.7469ZM14.3703 19.9153L13.4012 21.754L12.2933 19.9954L14.3703 19.9153ZM15.0597 27.7045L16.6645 26.3837L14.7183 25.6543L15.0597 27.7045ZM17.6291 27.3444L16.8538 29.2728L15.5714 27.6371L17.6291 27.3444ZM14.4538 25.9728L15.2291 24.0444L13.1714 24.3371L14.4538 25.9728ZM17.2372 24.9056L15.316 25.6987L15.5897 23.6384L17.2372 24.9056ZM17.6784 27.167L18.5536 25.2818L16.4833 25.4665L17.6784 27.167ZM14.6376 23.7058L12.5753 23.4471L13.8305 21.7905L14.6376 23.7058ZM13.0489 22.2369L12.0396 20.4199L10.9707 22.2024L13.0489 22.2369ZM16.8993 21.9806L17.3139 24.0173L15.3428 23.3581L16.8993 21.9806ZM14.759 22.904L16.3643 21.5838L14.4182 20.8537L14.759 22.904ZM11.0587 21.0777L12.2806 19.3963L10.2135 19.1788L11.0587 21.0777ZM9.50874 19.0067L10.3837 20.8921L8.31351 20.7072L9.50874 19.0067ZM7.74606 20.4725L8.97966 18.7997L6.91419 18.5677L7.74606 20.4725ZM5.98296 18.5016L7.30977 20.1014L5.26083 20.4506L5.98296 18.5016ZM16.6098 29.7014L15.283 28.1016L14.5608 30.0504L16.6098 29.7014ZM5.92716 20.6345L6.40917 22.6563L4.41723 22.0628L5.92716 20.6345ZM8.47989 21.0018L6.41511 20.7636L7.24128 22.6709L8.47989 21.0018ZM8.61534 21.5734L9.21705 23.5629L7.19328 23.0893L8.61534 21.5734ZM10.0098 26.4014L8.68296 24.8016L7.96083 26.7505L10.0098 26.4014ZM9.58296 26.9016L10.9098 28.5014L8.86083 28.8505L9.58296 26.9016ZM12.7098 30.3015L11.383 28.7016L10.6608 30.6504L12.7098 30.3015ZM14.383 31.4016L15.7098 33.0015L13.6608 33.3507L14.383 31.4016ZM12.7314 34.6701L13.3936 32.6997L11.3563 33.1113L12.7314 34.6701ZM11.383 30.8016L12.7098 32.4015L10.6608 32.7507L11.383 30.8016ZM7.38351 37.2036L6.29964 35.43L5.30568 37.2555L7.38351 37.2036ZM12.2201 35.7585L12.1012 37.8336L10.3637 36.693L12.2201 35.7585ZM4.87578 39.2928L6.25602 37.7388L4.22007 37.3203L4.87578 39.2928ZM14.8754 35.67L13.2638 34.3575L15.2062 33.618L14.8754 35.67ZM7.49772 39.1308L9.57597 39.1596L8.56173 37.3452L7.49772 39.1308ZM11.0805 37.3479L10.015 39.1326L9.00228 37.3176L11.0805 37.3479ZM12.5149 39.7542L13.0402 37.7433L11.0359 38.2938L12.5149 39.7542ZM14.8895 38.8497L12.9199 39.5136L13.3297 37.476L14.8895 38.8497ZM9.51357 44.1585L10.7768 42.5082L8.71575 42.2394L9.51357 44.1585ZM8.6811 42.7509L7.60674 44.5302L6.60306 42.7101L8.6811 42.7509ZM7.80102 45.1431L9.87942 45.1299L8.82876 43.3365L7.80102 45.1431ZM14.6171 44.3652L13.1174 45.8043L12.621 43.7859L14.6171 44.3652ZM12.5588 50.2389L13.0039 48.2085L11.0231 48.8382L12.5588 50.2389ZM18.0333 53.8224L16.8171 53.3835L17.8052 52.5498L18.0333 53.8224ZM15.1798 52.2708L15.9679 52.8885L16.1086 51.897L15.1798 52.2708ZM16.6125 53.2476L16.3291 51.9861L17.5633 52.3713L16.6125 53.2476ZM15.2688 51.6228L17.3234 51.9369L16.5682 50.0007L15.2688 51.6228ZM14.9147 50.4054L13.7989 48.6516L12.8382 50.4948L14.9147 50.4054ZM15.7678 47.6466L16.4147 49.6218L14.3807 49.1946L15.7678 47.6466ZM13.5898 48.51L15.3464 47.3991L13.506 46.4331L13.5898 48.51ZM15.0142 44.4303L15.5179 46.4469L13.5197 45.8748L15.0142 44.4303ZM12.4208 47.5665L10.6609 46.4607L10.5832 48.5376L12.4208 47.5665ZM10.748 45.9726L9.89811 47.8692L8.68044 46.1847L10.748 45.9726ZM13.117 47.0718L12.6442 45.048L11.1278 46.4694L13.117 47.0718ZM10.4791 43.7232L11.8348 45.2985L9.79263 45.6849L10.4791 43.7232ZM11.8067 44.8302L12.8811 43.0509L10.8031 43.0101L11.8067 44.8302ZM14.6104 42.1488L14.9011 44.2068L12.9735 43.4295L14.6104 42.1488ZM12.6677 42.7929L14.4353 41.6994L12.6046 40.7154L12.6677 42.7929ZM14.7192 39.2184L14.8787 41.2908L13.0042 40.3929L14.7192 39.2184ZM12.3813 40.3893L10.4208 41.0796L11.9989 42.4323L12.3813 40.3893ZM10.3577 42.1329L8.3424 41.6244L9.79053 40.1334L10.3577 42.1329ZM10.2199 40.7136L12.1895 40.0497L10.6297 38.676L10.2199 40.7136ZM9.55197 39.8424L8.15598 41.3823L7.52043 39.4035L9.55197 39.8424ZM5.94195 41.9226L7.95642 42.4344L7.39236 40.434L5.94195 41.9226ZM7.24158 39.9315L5.84673 41.4726L5.20968 39.4941L7.24158 39.9315ZM5.35026 39.2535L7.37829 39.7086L6.75837 37.7247L5.35026 39.2535ZM14.9723 36.0981L14.7703 38.1669L13.0798 36.9576L14.9723 36.0981ZM7.60341 37.9332L9.18039 36.5793L7.21938 35.8905L7.60341 37.9332ZM12.7876 34.707L14.4901 35.8992L12.6064 36.7776L12.7876 34.707ZM12.2179 35.5911L11.6484 33.5922L10.2021 35.085L12.2179 35.5911ZM11.0411 35.6511L9.60762 37.1562L9.021 35.1624L11.0411 35.6511ZM8.91051 36.0723L8.2107 34.1151L6.86568 35.6997L8.91051 36.0723ZM5.89464 33.1917L7.58016 34.4079L5.68422 35.2596L5.89464 33.1917ZM4.13652 36.9192L5.81478 35.6931L3.91377 34.8528L4.13652 36.9192ZM5.21739 32.9847L5.24775 35.0631L3.43278 34.0503L5.21739 32.9847ZM10.7673 33.8685L9.24768 32.4504L8.77944 34.4754L10.7673 33.8685ZM8.62014 31.5585L8.50125 33.6336L6.76365 32.493L8.62014 31.5585ZM10.1394 32.8614L11.063 30.9993L8.98866 31.1304L10.1394 32.8614ZM8.84418 29.3148L10.901 29.0156L10.1317 30.9465L8.84418 29.3148ZM7.30125 28.6888L5.57892 27.5253L5.43249 29.5986L7.30125 28.6888ZM3.52593 28.0151L5.12364 29.3445L3.17349 30.0636L3.52593 28.0151ZM9.44331 30.8973L8.07765 29.3305L7.40355 31.2966L9.44331 30.8973ZM5.31426 30.8862L7.23138 31.689L5.57742 32.9478L5.31426 30.8862ZM5.25027 32.5176L3.42225 31.5285L3.47967 33.606L5.25027 32.5176ZM4.95381 29.7103L4.93314 31.7886L3.14358 30.7317L4.95381 29.7103ZM6.86376 31.3368L7.29933 29.3045L5.32152 29.9434L6.86376 31.3368ZM5.41914 26.5354L5.13711 28.5947L3.49476 27.3209L5.41914 26.5354ZM9.07857 27.2993L7.01337 27.0649L7.84296 28.9706L9.07857 27.2993ZM5.60196 25.4926L7.63548 25.9226L6.24642 27.4687L5.60196 25.4926ZM5.44554 26.0322L3.81525 24.743L3.51384 26.7994L5.44554 26.0322ZM6.62097 23.2663L7.40079 25.1929L5.34237 24.9049L6.62097 23.2663ZM5.80977 24.0014L4.48296 22.4016L3.76083 24.3505L5.80977 24.0014ZM7.1046 23.3903L9.13683 23.8261L7.74324 25.3682L7.1046 23.3903ZM13.9493 32.0601L13.9133 29.9819L12.1316 31.0521L13.9493 32.0601ZM14.3575 30.7713L16.3771 30.2805L15.7924 32.2752L14.3575 30.7713ZM14.5469 28.6553L12.5258 28.1707L13.1167 30.1635L14.5469 28.6553ZM10.5696 27.2417L12.6022 26.8073L11.962 28.7848L10.5696 27.2417ZM11.2776 26.8631L11.8663 24.8698L9.84564 25.3567L11.2776 26.8631ZM10.1971 22.8837L11.3593 24.6068L9.2859 24.7518L10.1971 22.8837ZM10.8739 21.2907L8.80722 21.0694L9.64893 22.9699L10.8739 21.2907ZM10.483 22.6488L12.5612 22.6151L11.5513 24.4317L10.483 22.6488ZM13.9098 26.1014L12.583 24.5016L11.8608 26.4506L13.9098 26.1014ZM14.1588 26.1565L14.6164 28.1839L12.6317 27.5665L14.1588 26.1565ZM8.28372 18.1921L7.40874 16.3067L6.21351 18.0072L8.28372 18.1921ZM8.15271 16.6069L10.2284 16.714L9.09789 18.4581L8.15271 16.6069ZM11.5837 18.7921L10.7087 16.9067L9.51351 18.6072L11.5837 18.7921ZM13.4087 17.5067L14.2837 19.3921L12.2135 19.2072L13.4087 17.5067ZM10.7896 12.9941L8.76051 13.4446L10.1651 14.9765L10.7896 12.9941ZM11.2012 13.5738L13.2692 13.7823L12.0546 15.469L11.2012 13.5738ZM11.8923 13.0455L11.66 10.9801L9.98739 12.214L11.8923 13.0455ZM15.1454 13.2043L15.1367 15.2828L13.3411 14.236L15.1454 13.2043ZM13.2692 16.7823L11.2012 16.5738L12.0546 18.469L13.2692 16.7823ZM19.0012 17.4738L21.0692 17.6823L19.8546 19.369L19.0012 17.4738ZM16.4121 21.0351L16.0211 18.9938L14.4488 20.3531L16.4121 21.0351ZM14.0671 17.5877L16.0474 18.219L14.5105 19.6183L14.0671 17.5877ZM18.728 19.9034L16.6881 19.5049L17.363 21.4708L18.728 19.9034ZM18.8138 20.3726L19.417 22.3616L17.3929 21.8895L18.8138 20.3726ZM18.5066 17.4934L17.2939 19.1814L19.3621 19.3877L18.5066 17.4934ZM16.0012 16.8738L18.0692 17.0823L16.8546 18.769L16.0012 16.8738ZM15.2905 15.5905L13.7675 17.0048L15.7538 17.6166L15.2905 15.5905ZM17.1527 14.8834L17.9046 16.8211L15.8506 16.5034L17.1527 14.8834ZM21.6006 18.2623L20.0079 19.5977L21.9608 20.3093L21.6006 18.2623ZM21.8973 17.5968L23.8696 18.2527L22.3154 19.6327L21.8973 17.5968ZM20.1126 15.1979L19.3434 17.1288L21.4002 16.8295L20.1126 15.1979ZM17.6856 14.5186L18.7496 12.7331L19.7638 14.5473L17.6856 14.5186ZM14.6678 8.11419L14.8997 10.1797L16.5725 8.94618L14.6678 8.11419ZM21.4974 17.3869L22.7047 15.695L23.5663 17.5865L21.4974 17.3869ZM22.1669 14.1706L20.1444 14.6495L21.5704 16.1616L22.1669 14.1706ZM20.4699 14.2616L19.155 12.6518L21.2065 12.318L20.4699 14.2616ZM18.9007 10.1023L18.1545 12.0421L20.2076 11.7185L18.9007 10.1023ZM17.814 11.1549L16.6894 9.40695L18.7655 9.30702L17.814 11.1549ZM17.3678 6.91419L17.5997 8.97969L19.2725 7.74618L17.3678 6.91419ZM17.0562 6.77769L17.293 8.84259L15.3863 8.01525L17.0562 6.77769ZM22.5427 13.8211L23.0551 15.8354L24.5433 14.3846L22.5427 13.8211ZM24.6136 15.8053L24.9894 13.7611L26.5719 15.1085L24.6136 15.8053ZM22.7679 12.0997L24.1189 13.6791L24.8112 11.7193L22.7679 12.0997ZM20.9719 8.88588L18.8945 8.81865L19.9914 7.05321L20.9719 8.88588ZM23.8381 9.55014L23.3824 11.578L25.3664 10.9588L23.8381 9.55014ZM24.4675 13.5574L25.1866 11.6073L26.5159 13.2051L24.4675 13.5574ZM17.5169 6.3561L19.2633 7.48314L19.3662 5.40723L17.5169 6.3561ZM27.261 15.5235L25.8054 14.0398L27.8181 13.5211L27.261 15.5235ZM25.7679 11.7997L27.1189 13.3791L27.8112 11.4193L25.7679 11.7997ZM28.4037 14.6784L28.1543 12.615L30.066 13.4306L28.4037 14.6784ZM27.8568 12.2779L29.8948 12.6858L29.229 10.7169L27.8568 12.2779ZM23.9023 9.09702L24.546 7.12071L25.9357 8.66628L23.9023 9.09702ZM22.1847 6.46242L23.5829 8.00028L24.2156 6.02046L22.1847 6.46242ZM20.988 4.76493L22.9849 4.18812L22.486 6.20583L20.988 4.76493ZM25.1322 5.70603L23.9983 3.96414L23.0567 5.81709L25.1322 5.70603ZM25.8251 7.94472L24.5434 6.30843L26.6013 6.01662L25.8251 7.94472ZM26.5795 6.59535L26.5223 8.67303L28.3502 7.68372L26.5795 6.59535ZM29.354 9.85596L27.4741 8.96934L29.1819 7.78461L29.354 9.85596ZM24.4863 3.69516L25.6015 5.44911L26.5628 3.60633L24.4863 3.69516ZM26.1192 5.56635L27.1248 3.74733L28.1973 5.52768L26.1192 5.56635ZM32.4237 8.14374L31.6206 7.60911C31.4472 7.49367 31.3512 7.38927 31.3326 7.29585C31.3188 7.20582 31.3698 7.07412 31.485 6.90078L34.5861 2.24355C34.7049 2.06511 34.8111 1.96652 34.9044 1.94778C35.0013 1.92394 35.1336 1.96803 35.3019 2.08005L36.105 2.61469L32.4237 8.14374ZM36.5886 6.01617L36.2829 6.47502C36.1608 6.65856 36.0648 6.76392 35.9952 6.79116C35.9289 6.81327 35.8119 6.76833 35.6436 6.65631L34.4046 5.83143L34.9902 4.95198L36.5886 6.01617ZM38.3151 4.08624L37.8771 4.7439C37.7616 4.91724 37.6572 5.01327 37.5639 5.03202C37.4739 5.04567 37.3395 4.99308 37.1613 4.87428L35.6928 3.89664L36.4107 2.81836L38.3151 4.08624ZM36.3846 10.7811L36.3693 10.771C35.8647 10.4349 35.6115 10.1412 35.6094 9.88974C35.6076 9.77082 35.6145 9.66126 35.6298 9.56103C35.6499 9.46419 35.7093 9.33078 35.8077 9.16086C35.9793 8.8482 36.1854 8.51088 36.4266 8.1489C36.6675 7.78692 36.843 7.52859 36.9534 7.37394C37.0671 7.21419 37.191 7.06125 37.3251 6.91506C37.4679 6.76719 37.5858 6.67284 37.6791 6.63201C37.776 6.58611 37.8906 6.5631 38.0232 6.56301C38.1558 6.56295 38.2881 6.59598 38.4207 6.66216C38.5566 6.72324 38.7216 6.81828 38.9154 6.94728L38.9307 6.95745L36.3846 10.7811ZM39.2235 10.9273L38.9637 11.3173C38.6004 11.8628 38.1411 11.9506 37.5852 11.5805L36.6216 10.939L37.0035 10.3654L37.4166 10.6404C37.5237 10.7117 37.6002 10.7405 37.6461 10.7269C37.6953 10.7082 37.7487 10.6555 37.8063 10.5688L37.9692 10.3241C38.0202 10.2476 38.0568 10.2094 38.0787 10.2094C38.106 10.2127 38.1222 10.2161 38.1273 10.2195C38.1357 10.2178 38.1501 10.2238 38.1705 10.2373C38.1996 10.2492 38.2191 10.2586 38.2293 10.2653L39.2235 10.9273ZM39.1677 7.11531L40.0548 7.70595C40.4064 7.94016 40.6002 8.16855 40.6362 8.39106C40.6719 8.61357 40.5999 8.85993 40.4199 9.13014L39.972 9.8031C39.6663 10.2619 39.2637 10.325 38.7642 9.99237L37.6401 9.24387L38.022 8.67033L38.4348 8.94528C38.5572 9.02676 38.649 9.06576 38.7102 9.06234C38.7765 9.06231 38.8383 9.01896 38.8962 8.93229L39.2829 8.35107C39.3408 8.2644 39.3669 8.19729 39.3618 8.14974C39.3603 8.09706 39.3057 8.03511 39.1986 7.9638L38.7858 7.68885L39.1677 7.11531ZM48.1533 10.6369L47.0064 9.87306L46.5225 10.5996L47.3715 11.1648C47.4633 11.2259 47.5074 11.281 47.5041 11.3303C47.5092 11.3779 47.4846 11.4424 47.4303 11.524L44.3802 16.1048L45.1833 16.6394C45.3564 16.7549 45.4875 16.8015 45.5757 16.7794C45.669 16.7606 45.7752 16.662 45.894 16.4836L48.7149 12.2469C48.9255 11.9309 48.9762 11.6446 48.8673 11.3881C48.7635 11.1351 48.5256 10.8847 48.1533 10.6369ZM39.7458 13.0192L40.5489 13.5538L44.2302 8.02473L43.2819 7.39335C43.2003 7.33905 43.1154 7.32297 43.0272 7.34508C42.9387 7.36722 42.864 7.42419 42.8031 7.51596L39.6156 12.3032C39.4968 12.4816 39.4443 12.6159 39.4578 12.7059C39.4764 12.7993 39.5727 12.9038 39.7458 13.0192ZM46.5015 9.537L44.5437 8.2335L44.0601 8.96001L44.8632 9.49464C44.9547 9.55575 44.9991 9.61092 44.9958 9.66021C45.0009 9.70776 44.9763 9.77232 44.922 9.85389L42.6 13.3411C42.4743 13.5297 42.4158 13.6894 42.4245 13.8202C42.4365 13.9459 42.519 14.0597 42.6717 14.1616L43.4673 14.6911L46.5732 10.0262C46.6344 9.93444 46.6581 9.84354 46.6443 9.75351C46.6308 9.66351 46.5831 9.59133 46.5015 9.537ZM50.6043 15.558L50.1915 15.283C50.0334 15.1778 49.9254 15.1464 49.8678 15.1889C49.7931 15.2348 49.7148 15.319 49.6335 15.4413L48.279 17.4755C48.2451 17.5265 48.2214 17.5732 48.2076 17.6157C48.1635 17.7262 48.2307 17.8408 48.4092 17.9596L48.8223 18.2345L48.4404 18.8081L47.6985 18.3142C47.5047 18.1852 47.3517 18.0723 47.2398 17.9755C47.1309 17.8737 47.0511 17.7616 46.9998 17.6393C46.9488 17.5171 46.9242 17.405 46.926 17.303C46.9308 17.196 46.9725 17.0507 47.0505 16.8672C47.1675 16.6141 47.3634 16.281 47.6385 15.868C47.9136 15.4551 48.1011 15.1789 48.2013 15.0396C48.3048 14.8951 48.4158 14.7447 48.5346 14.5883C48.6585 14.4354 48.7614 14.3308 48.8427 14.2747C48.9294 14.222 49.0236 14.1744 49.1256 14.1319C49.236 14.0876 49.3446 14.0791 49.4517 14.1062C49.6845 14.1655 49.9488 14.2936 50.2443 14.4905L50.9862 14.9844L50.6043 15.558ZM50.1966 19.9002C50.1729 19.9359 50.1507 19.947 50.1303 19.9334L49.5033 19.5159C49.2177 19.3258 49.0503 19.1186 49.0011 18.8944C48.9567 18.6736 49.0347 18.4128 49.2348 18.112L51.2157 15.1372L51.5292 15.3459C51.8505 15.5598 52.0188 15.7822 52.0341 16.0132C52.053 16.2392 51.981 16.4745 51.8178 16.7192L50.3922 18.8605C50.2869 19.0185 50.2608 19.1298 50.3133 19.1943C50.3388 19.2334 50.3823 19.2733 50.4435 19.314L50.4816 19.3395C50.5224 19.3666 50.5311 19.3981 50.5071 19.4337L50.1966 19.9002ZM55.5696 19.6697L56.3232 18.5379L55.4514 17.9574C55.2678 17.8352 55.1064 17.8786 54.9672 18.0876L54.4683 18.8371C54.4308 18.8932 54.3996 18.9348 54.3741 18.962C54.3198 19.0215 54.2517 19.0241 54.1701 18.9697L54.048 18.8883L53.6661 19.4618L54.2472 19.8488C54.5532 20.0525 54.8061 20.1364 55.0068 20.1007C55.2156 20.0632 55.4031 19.9195 55.5696 19.6697ZM52.8306 19.9541L52.9527 20.0356L53.3346 19.462L52.7535 19.075C52.4475 18.8714 52.1901 18.7883 51.9813 18.8258C51.7809 18.8616 51.5976 19.0044 51.4311 19.2542L50.7183 20.3248L51.5901 20.9053C51.7737 21.0275 51.9351 20.9841 52.074 20.7751L52.5324 20.0868C52.5696 20.0307 52.6011 19.9891 52.6266 19.9619C52.6809 19.9024 52.749 19.8998 52.8306 19.9541ZM54.1452 20.0018L53.5641 19.6148L53.1822 20.1883L53.3046 20.2698C53.3505 20.3004 53.3778 20.3369 53.3862 20.3793C53.3946 20.4218 53.3649 20.494 53.2971 20.596L52.839 21.2843C52.6998 21.4933 52.722 21.6589 52.9053 21.7811L53.7771 22.3615L54.4902 21.2909C54.6564 21.0411 54.7149 20.8151 54.6654 20.613C54.6246 20.4092 54.4512 20.2055 54.1452 20.0018ZM54.1359 17.0816L53.2641 16.5011L52.5105 17.6329C52.3443 17.8828 52.2816 18.1096 52.3224 18.3134C52.3719 18.5156 52.5495 18.7184 52.8552 18.9221L53.4366 19.3091L53.8185 18.7355L53.6961 18.6541C53.6502 18.6235 53.6229 18.587 53.6145 18.5446C53.6061 18.5021 53.6355 18.4299 53.7036 18.3279L54.2025 17.5785C54.3417 17.3694 54.3195 17.2038 54.1359 17.0816Z"/>
</svg>
